<svg xmlns="http://www.w3.org/2000/svg" xmlns:xlink="http://www.w3.org/1999/xlink" width="500" zoomAndPan="magnify" viewBox="0 0 375 374.999991" height="500" preserveAspectRatio="xMidYMid meet" version="1.0"><defs><g/><clipPath id="157d9a284a"><path d="M 44.8125 41.832031 L 335.8125 41.832031 L 335.8125 332.832031 L 44.8125 332.832031 Z M 44.8125 41.832031 " clip-rule="nonzero"/></clipPath><clipPath id="edeccf9353"><path d="M 146 112.203125 L 231 112.203125 L 231 221 L 146 221 Z M 146 112.203125 " clip-rule="nonzero"/></clipPath><clipPath id="902e156f37"><path d="M 258 187 L 264.152344 187 L 264.152344 194 L 258 194 Z M 258 187 " clip-rule="nonzero"/></clipPath><clipPath id="6724d8619a"><path d="M 116.402344 165 L 123 165 L 123 172 L 116.402344 172 Z M 116.402344 165 " clip-rule="nonzero"/></clipPath></defs><g clip-path="url(#157d9a284a)"><path fill="#757fb2" d="M 326.808594 226.125 C 323.121094 238.6875 317.488281 250.601562 310.496094 261.578125 C 304.726562 270.507812 298.164062 278.902344 290.789062 286.535156 C 289.835938 287.578125 288.773438 288.511719 287.761719 289.496094 C 286.730469 290.464844 285.730469 291.464844 284.679688 292.40625 L 281.484375 295.1875 L 279.882812 296.578125 L 278.226562 297.894531 L 274.917969 300.539062 C 273.792969 301.398438 272.636719 302.207031 271.503906 303.046875 C 269.257812 304.765625 266.867188 306.277344 264.53125 307.867188 C 264.191406 308.09375 263.839844 308.332031 263.46875 308.578125 C 263.085938 308.808594 262.691406 309.046875 262.277344 309.292969 C 261.453125 309.789062 260.566406 310.320312 259.621094 310.882812 C 257.75 312.058594 255.542969 313.164062 253.15625 314.429688 C 252.554688 314.742188 251.953125 315.078125 251.316406 315.382812 C 250.679688 315.679688 250.03125 315.980469 249.367188 316.289062 C 248.039062 316.902344 246.664062 317.535156 245.246094 318.191406 C 242.339844 319.328125 239.308594 320.691406 236.003906 321.75 C 222.949219 326.484375 206.660156 329.410156 190.3125 329.480469 C 173.964844 329.410156 157.671875 326.484375 144.621094 321.75 C 141.3125 320.691406 138.28125 319.328125 135.375 318.191406 C 133.957031 317.535156 132.582031 316.902344 131.257812 316.289062 C 130.59375 315.980469 129.941406 315.679688 129.304688 315.382812 C 128.671875 315.078125 128.070312 314.742188 127.46875 314.429688 C 125.082031 313.164062 122.871094 312.058594 121.003906 310.886719 C 120.058594 310.320312 119.167969 309.789062 118.34375 309.292969 C 117.933594 309.046875 117.535156 308.808594 117.15625 308.578125 C 116.785156 308.332031 116.429688 308.09375 116.09375 307.867188 C 107.214844 302.046875 98.871094 295.4375 91.285156 288.011719 C 83.285156 280.019531 76.292969 271.070312 70.125 261.578125 C 63.136719 250.601562 57.503906 238.6875 53.8125 226.125 C 49.972656 213.605469 48.195312 200.46875 48.082031 187.332031 C 48.195312 174.191406 49.972656 161.054688 53.8125 148.535156 C 57.503906 135.972656 63.136719 124.058594 70.125 113.082031 C 75.894531 104.152344 82.457031 95.757812 89.832031 88.125 C 90.785156 87.082031 91.851562 86.148438 92.863281 85.164062 C 93.890625 84.195312 94.890625 83.199219 95.945312 82.253906 L 100.738281 78.082031 L 102.394531 76.765625 L 105.707031 74.121094 C 106.828125 73.265625 107.984375 72.453125 109.121094 71.613281 C 111.367188 69.894531 113.753906 68.382812 116.09375 66.792969 C 116.429688 66.566406 116.785156 66.328125 117.152344 66.082031 C 117.535156 65.851562 117.929688 65.613281 118.34375 65.367188 C 119.167969 64.871094 120.054688 64.339844 121.003906 63.777344 C 122.871094 62.601562 125.082031 61.5 127.464844 60.230469 C 128.066406 59.921875 128.667969 59.582031 129.304688 59.277344 C 129.941406 58.980469 130.59375 58.679688 131.253906 58.371094 C 132.582031 57.757812 133.957031 57.125 135.375 56.46875 C 138.28125 55.332031 141.3125 53.96875 144.617188 52.910156 C 157.671875 48.175781 173.960938 45.25 190.3125 45.179688 C 206.660156 45.25 222.949219 48.175781 236 52.910156 C 239.308594 53.96875 242.339844 55.332031 245.246094 56.46875 C 246.664062 57.125 248.039062 57.757812 249.367188 58.371094 C 250.027344 58.679688 250.679688 58.980469 251.316406 59.277344 C 251.953125 59.582031 252.554688 59.921875 253.152344 60.230469 C 255.539062 61.496094 257.75 62.601562 259.617188 63.777344 C 260.5625 64.339844 261.453125 64.871094 262.277344 65.367188 C 262.6875 65.613281 263.085938 65.851562 263.46875 66.082031 C 263.835938 66.328125 264.191406 66.566406 264.527344 66.792969 C 273.410156 72.613281 281.753906 79.222656 289.335938 86.648438 C 297.335938 94.640625 304.328125 103.589844 310.496094 113.082031 C 317.488281 124.058594 323.121094 135.972656 326.808594 148.535156 C 330.648438 161.054688 332.425781 174.191406 332.539062 187.332031 C 332.425781 200.46875 330.648438 213.605469 326.808594 226.125 Z M 335.808594 187.234375 L 335.808594 187.222656 C 335.6875 173.804688 333.882812 160.382812 329.976562 147.582031 C 326.214844 134.742188 320.457031 122.554688 313.28125 111.363281 L 309.832031 106.175781 C 309.832031 106.175781 308.832031 104.78125 307.339844 102.691406 C 305.898438 100.554688 303.695312 97.925781 301.589844 95.21875 C 299.320312 92.648438 297.148438 89.996094 295.316406 88.191406 C 293.539062 86.332031 292.355469 85.097656 292.355469 85.097656 C 292.355469 85.097656 292.054688 84.792969 291.515625 84.273438 C 290.976562 83.753906 290.207031 83.007812 289.28125 82.117188 C 287.480469 80.28125 284.863281 78.066406 282.296875 75.796875 C 280.980469 74.703125 279.625 73.65625 278.375 72.648438 C 277.746094 72.148438 277.140625 71.664062 276.5625 71.207031 C 275.964844 70.777344 275.402344 70.371094 274.878906 69.992188 C 272.796875 68.488281 271.40625 67.488281 271.40625 67.488281 C 271.40625 67.488281 271.105469 67.242188 270.617188 66.925781 C 270.128906 66.601562 269.484375 66.167969 268.839844 65.734375 C 267.546875 64.871094 266.253906 64.003906 266.253906 64.003906 C 265.910156 63.773438 265.546875 63.527344 265.171875 63.273438 C 264.78125 63.039062 264.375 62.792969 263.953125 62.539062 C 263.109375 62.03125 262.203125 61.484375 261.238281 60.90625 C 259.328125 59.703125 257.066406 58.566406 254.625 57.265625 C 254.011719 56.945312 253.394531 56.601562 252.746094 56.289062 C 252.09375 55.984375 251.429688 55.675781 250.753906 55.359375 C 249.394531 54.730469 247.988281 54.078125 246.539062 53.40625 C 243.5625 52.238281 240.460938 50.84375 237.078125 49.753906 C 223.71875 44.902344 207.039062 41.894531 190.3125 41.832031 C 173.582031 41.894531 156.902344 44.902344 143.542969 49.753906 C 140.160156 50.84375 137.058594 52.238281 134.082031 53.40625 C 132.632812 54.078125 131.226562 54.730469 129.871094 55.359375 C 129.191406 55.675781 128.527344 55.984375 127.875 56.289062 C 127.222656 56.601562 126.609375 56.945312 125.996094 57.265625 C 123.554688 58.566406 121.292969 59.703125 119.382812 60.90625 C 118.417969 61.484375 117.511719 62.03125 116.667969 62.539062 C 116.246094 62.792969 115.839844 63.039062 115.453125 63.273438 C 115.074219 63.53125 114.710938 63.773438 114.367188 64.003906 C 114.367188 64.003906 113.074219 64.871094 111.78125 65.734375 C 111.136719 66.167969 110.492188 66.601562 110.007812 66.925781 C 109.515625 67.242188 109.214844 67.488281 109.214844 67.488281 C 109.214844 67.488281 107.824219 68.488281 105.742188 69.992188 C 105.21875 70.371094 104.65625 70.777344 104.058594 71.207031 C 103.484375 71.664062 102.875 72.148438 102.246094 72.648438 C 100.996094 73.65625 99.640625 74.703125 98.324219 75.796875 C 95.757812 78.066406 93.140625 80.28125 91.339844 82.117188 C 90.414062 83.007812 89.644531 83.753906 89.105469 84.273438 C 88.566406 84.792969 88.265625 85.097656 88.265625 85.097656 C 88.265625 85.097656 87.082031 86.332031 85.304688 88.191406 C 83.476562 89.996094 81.300781 92.648438 79.03125 95.21875 C 76.929688 97.925781 74.722656 100.554688 73.285156 102.691406 C 71.789062 104.78125 70.789062 106.179688 70.789062 106.179688 L 67.339844 111.363281 C 60.164062 122.554688 54.40625 134.746094 50.648438 147.582031 C 46.738281 160.382812 44.933594 173.808594 44.816406 187.222656 L 44.8125 187.234375 L 44.8125 187.425781 L 44.816406 187.4375 C 44.933594 200.855469 46.738281 214.277344 50.648438 227.078125 C 54.40625 239.917969 60.164062 252.105469 67.339844 263.296875 L 70.792969 268.484375 C 70.792969 268.484375 71.789062 269.878906 73.285156 271.96875 C 74.722656 274.105469 76.929688 276.738281 79.03125 279.441406 C 81.300781 282.011719 83.476562 284.664062 85.304688 286.472656 C 87.082031 288.324219 88.265625 289.5625 88.265625 289.5625 C 88.265625 289.5625 88.566406 289.867188 89.105469 290.386719 C 89.644531 290.90625 90.414062 291.652344 91.339844 292.542969 C 93.140625 294.382812 95.757812 296.59375 98.324219 298.863281 C 99.640625 299.957031 100.996094 301.003906 102.246094 302.011719 C 102.875 302.511719 103.484375 302.996094 104.058594 303.453125 C 104.65625 303.882812 105.21875 304.289062 105.742188 304.667969 C 107.824219 306.171875 109.214844 307.171875 109.214844 307.171875 C 109.214844 307.171875 109.515625 307.417969 110.007812 307.734375 C 110.492188 308.058594 111.136719 308.492188 111.78125 308.925781 C 113.074219 309.789062 114.367188 310.65625 114.367188 310.65625 C 114.714844 310.886719 115.074219 311.132812 115.453125 311.386719 C 115.839844 311.621094 116.246094 311.867188 116.667969 312.121094 C 117.511719 312.628906 118.417969 313.175781 119.386719 313.753906 C 121.292969 314.957031 123.554688 316.09375 125.996094 317.394531 C 126.609375 317.714844 127.226562 318.058594 127.875 318.371094 C 128.527344 318.675781 129.191406 318.984375 129.871094 319.300781 C 131.226562 319.929688 132.632812 320.582031 134.085938 321.253906 C 137.058594 322.421875 140.160156 323.816406 143.546875 324.90625 C 156.902344 329.757812 173.582031 332.761719 190.3125 332.832031 C 207.039062 332.761719 223.71875 329.757812 237.078125 324.90625 C 240.460938 323.816406 243.5625 322.421875 246.539062 321.253906 C 247.988281 320.582031 249.394531 319.929688 250.753906 319.300781 C 251.429688 318.984375 252.097656 318.675781 252.75 318.371094 C 253.398438 318.058594 254.015625 317.714844 254.628906 317.394531 C 257.070312 316.09375 259.328125 314.957031 261.238281 313.753906 C 262.203125 313.175781 263.109375 312.628906 263.957031 312.121094 C 264.375 311.867188 264.78125 311.621094 265.171875 311.386719 C 265.546875 311.128906 265.910156 310.886719 266.253906 310.65625 C 266.253906 310.65625 267.546875 309.789062 268.839844 308.925781 C 269.484375 308.492188 270.132812 308.058594 270.617188 307.734375 C 271.105469 307.417969 271.40625 307.171875 271.40625 307.171875 C 271.40625 307.171875 272.796875 306.171875 274.878906 304.667969 C 275.402344 304.289062 275.964844 303.882812 276.5625 303.453125 C 277.140625 302.996094 277.746094 302.511719 278.375 302.011719 C 279.625 301.003906 280.980469 299.957031 282.296875 298.863281 C 284.863281 296.59375 287.480469 294.382812 289.28125 292.542969 C 290.207031 291.652344 290.976562 290.90625 291.515625 290.386719 C 292.054688 289.867188 292.355469 289.5625 292.355469 289.5625 C 292.355469 289.5625 293.539062 288.324219 295.316406 286.472656 C 297.148438 284.664062 299.320312 282.011719 301.589844 279.441406 C 303.695312 276.738281 305.898438 274.105469 307.339844 271.96875 C 308.835938 269.878906 309.832031 268.484375 309.832031 268.484375 L 313.28125 263.296875 C 320.457031 252.105469 326.214844 239.917969 329.976562 227.078125 C 333.882812 214.277344 335.6875 200.851562 335.808594 187.4375 L 335.808594 187.425781 L 335.8125 187.332031 L 335.808594 187.234375 " fill-opacity="1" fill-rule="nonzero"/></g><path fill="#072b61" d="M 249.527344 204.242188 L 239.425781 204.242188 L 239.425781 201.03125 L 248.195312 201.03125 L 260.09375 189.144531 L 262.367188 191.417969 Z M 249.527344 204.242188 " fill-opacity="1" fill-rule="nonzero"/><path fill="#072b61" d="M 228.082031 171.953125 L 225.808594 169.679688 L 238.753906 156.746094 L 259.992188 156.746094 L 259.992188 159.957031 L 240.089844 159.957031 Z M 228.082031 171.953125 " fill-opacity="1" fill-rule="nonzero"/><path fill="#072b61" d="M 250.09375 159.488281 L 240.964844 150.371094 L 240.964844 131.328125 L 244.179688 131.328125 L 244.179688 149.035156 L 252.371094 157.214844 Z M 250.09375 159.488281 " fill-opacity="1" fill-rule="nonzero"/><path fill="#072b61" d="M 261.914062 218.082031 L 258.695312 218.082031 L 258.695312 208.554688 L 250.507812 200.375 L 252.78125 198.101562 L 261.914062 207.222656 Z M 261.914062 218.082031 " fill-opacity="1" fill-rule="nonzero"/><path fill="#072b61" d="M 120.710938 169.566406 L 118.4375 167.292969 L 131.277344 154.46875 L 146.476562 154.46875 L 146.476562 157.679688 L 132.609375 157.679688 Z M 120.710938 169.566406 " fill-opacity="1" fill-rule="nonzero"/><path fill="#072b61" d="M 242.105469 254.480469 L 203.683594 254.480469 L 203.683594 251.265625 L 240.773438 251.265625 L 252.671875 239.378906 L 254.945312 241.652344 Z M 242.105469 254.480469 " fill-opacity="1" fill-rule="nonzero"/><path fill="#072b61" d="M 120.964844 226.863281 L 150.765625 226.863281 L 150.765625 230.078125 L 120.964844 230.078125 Z M 120.964844 226.863281 " fill-opacity="1" fill-rule="nonzero"/><path fill="#072b61" d="M 149.863281 149.183594 L 134.527344 133.867188 L 121.816406 133.867188 L 121.816406 130.652344 L 135.859375 130.652344 L 152.136719 146.910156 Z M 149.863281 149.183594 " fill-opacity="1" fill-rule="nonzero"/><g clip-path="url(#edeccf9353)"><path fill="#aab2d5" d="M 188.390625 137.117188 C 199.265625 137.117188 208.113281 147.003906 208.113281 159.136719 L 208.113281 173.945312 C 208.113281 186.085938 199.265625 195.964844 188.390625 195.964844 C 177.511719 195.964844 168.667969 186.082031 168.667969 173.945312 L 168.667969 159.136719 C 168.667969 146.996094 177.515625 137.117188 188.390625 137.117188 M 188.390625 112.175781 C 165.257812 112.175781 146.328125 133.308594 146.328125 159.128906 L 146.328125 173.9375 C 146.328125 199.769531 165.253906 220.890625 188.390625 220.890625 C 211.527344 220.890625 230.453125 199.757812 230.453125 173.9375 L 230.453125 159.136719 C 230.453125 133.308594 211.527344 112.183594 188.390625 112.183594 Z M 188.390625 112.175781 " fill-opacity="1" fill-rule="nonzero"/></g><g clip-path="url(#902e156f37)"><path fill="#072b61" d="M 264.164062 190.53125 C 264.164062 190.910156 264.09375 191.269531 263.945312 191.617188 C 263.800781 191.964844 263.59375 192.273438 263.328125 192.539062 C 263.058594 192.804688 262.75 193.011719 262.398438 193.152344 C 262.050781 193.296875 261.6875 193.371094 261.308594 193.371094 C 260.925781 193.371094 260.5625 193.296875 260.214844 193.152344 C 259.863281 193.011719 259.554688 192.804688 259.285156 192.539062 C 259.019531 192.273438 258.8125 191.964844 258.667969 191.617188 C 258.519531 191.269531 258.449219 190.910156 258.449219 190.53125 C 258.449219 190.15625 258.519531 189.796875 258.667969 189.449219 C 258.8125 189.101562 259.019531 188.792969 259.285156 188.527344 C 259.554688 188.261719 259.863281 188.054688 260.214844 187.914062 C 260.5625 187.769531 260.925781 187.695312 261.308594 187.695312 C 261.6875 187.695312 262.050781 187.769531 262.398438 187.914062 C 262.75 188.054688 263.058594 188.261719 263.328125 188.527344 C 263.59375 188.792969 263.800781 189.101562 263.945312 189.449219 C 264.09375 189.796875 264.164062 190.15625 264.164062 190.53125 Z M 264.164062 190.53125 " fill-opacity="1" fill-rule="nonzero"/></g><path fill="#072b61" d="M 262.773438 158.292969 C 262.773438 158.671875 262.703125 159.03125 262.554688 159.378906 C 262.410156 159.726562 262.203125 160.035156 261.9375 160.300781 C 261.667969 160.566406 261.359375 160.769531 261.007812 160.914062 C 260.660156 161.058594 260.296875 161.132812 259.917969 161.132812 C 259.539062 161.132812 259.171875 161.058594 258.824219 160.914062 C 258.472656 160.769531 258.164062 160.566406 257.894531 160.300781 C 257.628906 160.035156 257.421875 159.726562 257.277344 159.378906 C 257.128906 159.03125 257.058594 158.671875 257.058594 158.292969 C 257.058594 157.917969 257.128906 157.554688 257.277344 157.207031 C 257.421875 156.859375 257.628906 156.554688 257.894531 156.289062 C 258.164062 156.023438 258.472656 155.816406 258.824219 155.671875 C 259.171875 155.53125 259.539062 155.457031 259.917969 155.457031 C 260.296875 155.457031 260.660156 155.53125 261.007812 155.671875 C 261.359375 155.816406 261.667969 156.023438 261.9375 156.289062 C 262.203125 156.554688 262.410156 156.859375 262.554688 157.207031 C 262.703125 157.554688 262.773438 157.917969 262.773438 158.292969 Z M 262.773438 158.292969 " fill-opacity="1" fill-rule="nonzero"/><path fill="#072b61" d="M 245.355469 131.402344 C 245.355469 131.78125 245.28125 132.144531 245.136719 132.496094 C 244.996094 132.84375 244.789062 133.152344 244.523438 133.421875 C 244.257812 133.6875 243.949219 133.894531 243.601562 134.039062 C 243.253906 134.183594 242.890625 134.257812 242.515625 134.257812 C 242.136719 134.257812 241.773438 134.183594 241.425781 134.039062 C 241.078125 133.894531 240.773438 133.6875 240.503906 133.421875 C 240.238281 133.152344 240.035156 132.84375 239.890625 132.496094 C 239.746094 132.144531 239.671875 131.78125 239.671875 131.402344 C 239.671875 131.023438 239.746094 130.660156 239.890625 130.3125 C 240.035156 129.960938 240.238281 129.652344 240.503906 129.382812 C 240.773438 129.117188 241.078125 128.910156 241.425781 128.765625 C 241.773438 128.621094 242.136719 128.546875 242.515625 128.546875 C 242.890625 128.546875 243.253906 128.621094 243.601562 128.765625 C 243.949219 128.910156 244.257812 129.117188 244.523438 129.382812 C 244.789062 129.652344 244.996094 129.960938 245.136719 130.3125 C 245.28125 130.660156 245.355469 131.023438 245.355469 131.402344 Z M 245.355469 131.402344 " fill-opacity="1" fill-rule="nonzero"/><path fill="#072b61" d="M 263.203125 218.007812 C 263.203125 218.386719 263.128906 218.75 262.984375 219.101562 C 262.839844 219.449219 262.636719 219.757812 262.371094 220.027344 C 262.105469 220.292969 261.796875 220.5 261.449219 220.644531 C 261.101562 220.789062 260.738281 220.863281 260.363281 220.863281 C 259.984375 220.863281 259.621094 220.789062 259.273438 220.644531 C 258.925781 220.5 258.621094 220.292969 258.351562 220.027344 C 258.085938 219.757812 257.882812 219.449219 257.738281 219.101562 C 257.59375 218.75 257.519531 218.386719 257.519531 218.007812 C 257.519531 217.628906 257.59375 217.265625 257.738281 216.914062 C 257.882812 216.566406 258.085938 216.257812 258.351562 215.988281 C 258.621094 215.722656 258.925781 215.515625 259.273438 215.371094 C 259.621094 215.226562 259.984375 215.152344 260.363281 215.152344 C 260.738281 215.152344 261.101562 215.226562 261.449219 215.371094 C 261.796875 215.515625 262.105469 215.722656 262.371094 215.988281 C 262.636719 216.257812 262.839844 216.566406 262.984375 216.914062 C 263.128906 217.265625 263.203125 217.628906 263.203125 218.007812 Z M 263.203125 218.007812 " fill-opacity="1" fill-rule="nonzero"/><g clip-path="url(#6724d8619a)"><path fill="#072b61" d="M 122.355469 168.179688 C 122.355469 168.554688 122.285156 168.917969 122.140625 169.265625 C 121.996094 169.613281 121.789062 169.917969 121.519531 170.183594 C 121.25 170.449219 120.941406 170.65625 120.59375 170.800781 C 120.242188 170.945312 119.878906 171.015625 119.5 171.015625 C 119.121094 171.015625 118.753906 170.945312 118.40625 170.800781 C 118.054688 170.65625 117.746094 170.449219 117.476562 170.183594 C 117.210938 169.917969 117.003906 169.613281 116.859375 169.265625 C 116.714844 168.917969 116.640625 168.554688 116.640625 168.179688 C 116.640625 167.800781 116.714844 167.441406 116.859375 167.09375 C 117.003906 166.746094 117.210938 166.4375 117.476562 166.171875 C 117.746094 165.90625 118.054688 165.703125 118.40625 165.558594 C 118.753906 165.414062 119.121094 165.34375 119.5 165.34375 C 119.878906 165.34375 120.242188 165.414062 120.59375 165.558594 C 120.941406 165.703125 121.25 165.90625 121.519531 166.171875 C 121.789062 166.4375 121.996094 166.746094 122.140625 167.09375 C 122.285156 167.441406 122.355469 167.800781 122.355469 168.179688 Z M 122.355469 168.179688 " fill-opacity="1" fill-rule="nonzero"/></g><path fill="#072b61" d="M 256.742188 240.769531 C 256.742188 241.144531 256.667969 241.507812 256.523438 241.855469 C 256.378906 242.203125 256.171875 242.507812 255.90625 242.777344 C 255.636719 243.042969 255.328125 243.246094 254.976562 243.390625 C 254.628906 243.535156 254.261719 243.605469 253.882812 243.605469 C 253.503906 243.605469 253.140625 243.535156 252.789062 243.390625 C 252.441406 243.246094 252.132812 243.042969 251.863281 242.777344 C 251.59375 242.507812 251.386719 242.203125 251.242188 241.855469 C 251.097656 241.507812 251.027344 241.144531 251.027344 240.769531 C 251.027344 240.394531 251.097656 240.03125 251.242188 239.683594 C 251.386719 239.335938 251.59375 239.03125 251.863281 238.761719 C 252.132812 238.496094 252.441406 238.292969 252.789062 238.148438 C 253.140625 238.003906 253.503906 237.933594 253.882812 237.933594 C 254.261719 237.933594 254.628906 238.003906 254.976562 238.148438 C 255.328125 238.292969 255.636719 238.496094 255.90625 238.761719 C 256.171875 239.03125 256.378906 239.335938 256.523438 239.683594 C 256.667969 240.03125 256.742188 240.394531 256.742188 240.769531 Z M 256.742188 240.769531 " fill-opacity="1" fill-rule="nonzero"/><path fill="#072b61" d="M 124.753906 132.316406 C 124.753906 132.691406 124.679688 133.054688 124.535156 133.402344 C 124.390625 133.746094 124.183594 134.054688 123.914062 134.320312 C 123.648438 134.585938 123.339844 134.792969 122.988281 134.9375 C 122.636719 135.078125 122.273438 135.152344 121.894531 135.152344 C 121.515625 135.152344 121.152344 135.078125 120.800781 134.9375 C 120.449219 134.792969 120.140625 134.585938 119.875 134.320312 C 119.605469 134.054688 119.398438 133.746094 119.253906 133.402344 C 119.109375 133.054688 119.035156 132.691406 119.035156 132.316406 C 119.035156 131.9375 119.109375 131.578125 119.253906 131.230469 C 119.398438 130.882812 119.605469 130.574219 119.875 130.308594 C 120.140625 130.042969 120.449219 129.835938 120.800781 129.695312 C 121.152344 129.550781 121.515625 129.476562 121.894531 129.476562 C 122.273438 129.476562 122.636719 129.550781 122.988281 129.695312 C 123.339844 129.835938 123.648438 130.042969 123.914062 130.308594 C 124.183594 130.574219 124.390625 130.882812 124.535156 131.230469 C 124.679688 131.578125 124.753906 131.9375 124.753906 132.316406 Z M 124.753906 132.316406 " fill-opacity="1" fill-rule="nonzero"/><path fill="#072b61" d="M 123.898438 228.527344 C 123.898438 228.902344 123.824219 229.265625 123.679688 229.613281 C 123.535156 229.960938 123.328125 230.265625 123.0625 230.535156 C 122.792969 230.800781 122.484375 231.003906 122.132812 231.148438 C 121.785156 231.292969 121.417969 231.363281 121.039062 231.363281 C 120.660156 231.363281 120.296875 231.292969 119.945312 231.148438 C 119.597656 231.003906 119.289062 230.800781 119.019531 230.535156 C 118.75 230.265625 118.546875 229.960938 118.398438 229.613281 C 118.253906 229.265625 118.183594 228.902344 118.183594 228.527344 C 118.183594 228.152344 118.253906 227.789062 118.398438 227.441406 C 118.546875 227.09375 118.75 226.789062 119.019531 226.519531 C 119.289062 226.253906 119.597656 226.050781 119.945312 225.90625 C 120.296875 225.761719 120.660156 225.691406 121.039062 225.691406 C 121.417969 225.691406 121.785156 225.761719 122.132812 225.90625 C 122.484375 226.050781 122.792969 226.253906 123.0625 226.519531 C 123.328125 226.789062 123.535156 227.09375 123.679688 227.441406 C 123.824219 227.789062 123.898438 228.152344 123.898438 228.527344 Z M 123.898438 228.527344 " fill-opacity="1" fill-rule="nonzero"/><path fill="#757fb2" d="M 143.792969 168.34375 C 142.816406 168.875 141.964844 169.558594 141.238281 170.402344 C 140.515625 171.246094 139.964844 172.191406 139.585938 173.234375 C 137.480469 180.109375 136.433594 187.136719 136.4375 194.324219 C 136.421875 198.09375 136.703125 201.839844 137.285156 205.5625 C 137.867188 209.285156 138.742188 212.9375 139.910156 216.523438 C 141.078125 220.105469 142.523438 223.574219 144.246094 226.929688 C 145.96875 230.28125 147.945312 233.476562 150.179688 236.515625 C 152.335938 239.453125 154.714844 242.203125 157.308594 244.769531 C 159.902344 247.332031 162.683594 249.675781 165.648438 251.800781 C 168.613281 253.925781 171.730469 255.804688 174.992188 257.4375 C 178.253906 259.070312 181.625 260.4375 185.105469 261.539062 C 187.296875 262.136719 189.484375 262.136719 191.675781 261.539062 C 195.15625 260.4375 198.527344 259.074219 201.789062 257.441406 C 205.054688 255.804688 208.167969 253.925781 211.136719 251.800781 C 214.101562 249.679688 216.882812 247.332031 219.476562 244.769531 C 222.074219 242.207031 224.449219 239.453125 226.609375 236.515625 C 228.84375 233.476562 230.820312 230.28125 232.542969 226.929688 C 234.265625 223.574219 235.710938 220.105469 236.878906 216.523438 C 238.042969 212.9375 238.921875 209.285156 239.503906 205.5625 C 240.085938 201.839844 240.367188 198.09375 240.351562 194.324219 C 240.355469 187.136719 239.300781 180.109375 237.195312 173.238281 C 236.820312 172.195312 236.265625 171.25 235.542969 170.410156 C 234.816406 169.566406 233.96875 168.878906 232.992188 168.347656 C 219.375 161.398438 157.402344 161.398438 143.792969 168.34375 Z M 143.792969 168.34375 " fill-opacity="1" fill-rule="nonzero"/><path fill="#052051" d="M 195.015625 207.589844 L 197.867188 222.535156 C 197.886719 222.683594 197.894531 222.828125 197.882812 222.976562 C 197.871094 223.125 197.84375 223.269531 197.796875 223.414062 C 197.753906 223.554688 197.691406 223.691406 197.617188 223.816406 C 197.539062 223.945312 197.449219 224.0625 197.347656 224.167969 C 197.242188 224.277344 197.128906 224.371094 197.003906 224.449219 C 196.878906 224.53125 196.746094 224.59375 196.605469 224.644531 C 196.464844 224.695312 196.320312 224.726562 196.171875 224.746094 C 196.023438 224.761719 195.875 224.757812 195.726562 224.742188 L 181.050781 224.742188 C 180.90625 224.757812 180.757812 224.761719 180.609375 224.742188 C 180.460938 224.726562 180.316406 224.695312 180.175781 224.644531 C 180.035156 224.59375 179.902344 224.53125 179.777344 224.449219 C 179.652344 224.371094 179.539062 224.277344 179.433594 224.167969 C 179.332031 224.0625 179.242188 223.945312 179.164062 223.816406 C 179.085938 223.691406 179.027344 223.554688 178.980469 223.414062 C 178.9375 223.269531 178.910156 223.125 178.898438 222.976562 C 178.886719 222.828125 178.890625 222.683594 178.914062 222.535156 L 181.765625 207.589844 C 181.808594 206.886719 181.714844 206.207031 181.480469 205.542969 C 181.246094 204.882812 180.894531 204.289062 180.417969 203.769531 C 179.808594 203.085938 179.335938 202.3125 179.003906 201.457031 C 178.671875 200.601562 178.503906 199.710938 178.492188 198.792969 C 178.535156 198.1875 178.636719 197.589844 178.796875 197 C 178.960938 196.414062 179.175781 195.847656 179.445312 195.300781 C 179.71875 194.753906 180.039062 194.242188 180.410156 193.757812 C 180.785156 193.277344 181.199219 192.835938 181.660156 192.433594 C 182.117188 192.03125 182.613281 191.679688 183.140625 191.375 C 183.667969 191.070312 184.222656 190.820312 184.796875 190.625 C 185.375 190.429688 185.964844 190.289062 186.570312 190.207031 C 187.175781 190.128906 187.78125 190.105469 188.390625 190.144531 C 189 190.105469 189.605469 190.128906 190.210938 190.210938 C 190.816406 190.289062 191.40625 190.429688 191.984375 190.625 C 192.5625 190.820312 193.113281 191.070312 193.640625 191.375 C 194.171875 191.679688 194.664062 192.035156 195.121094 192.433594 C 195.582031 192.835938 195.996094 193.277344 196.371094 193.761719 C 196.742188 194.242188 197.0625 194.757812 197.335938 195.300781 C 197.605469 195.847656 197.824219 196.414062 197.984375 197 C 198.144531 197.589844 198.246094 198.1875 198.289062 198.792969 C 198.277344 199.710938 198.109375 200.601562 197.777344 201.457031 C 197.445312 202.3125 196.972656 203.085938 196.359375 203.769531 C 195.886719 204.292969 195.535156 204.882812 195.300781 205.542969 C 195.070312 206.207031 194.972656 206.886719 195.015625 207.589844 Z M 195.015625 207.589844 " fill-opacity="1" fill-rule="nonzero"/><path fill="#ffffff" d="M 199.976562 129.769531 C 200.246094 130.035156 200.453125 130.34375 200.597656 130.691406 C 200.742188 131.042969 200.816406 131.40625 200.820312 131.78125 C 200.820312 132.160156 200.75 132.523438 200.605469 132.871094 C 200.460938 133.21875 200.257812 133.527344 199.988281 133.792969 C 199.722656 134.058594 199.417969 134.261719 199.066406 134.40625 C 198.71875 134.550781 198.355469 134.621094 197.976562 134.621094 C 197.601562 134.617188 197.238281 134.542969 196.886719 134.398438 C 196.539062 134.253906 196.230469 134.046875 195.960938 133.78125 C 195.691406 133.511719 195.484375 133.203125 195.339844 132.855469 C 195.195312 132.503906 195.121094 132.140625 195.121094 131.765625 C 195.117188 131.386719 195.191406 131.023438 195.332031 130.675781 C 195.476562 130.328125 195.683594 130.019531 195.949219 129.753906 C 196.214844 129.488281 196.523438 129.285156 196.871094 129.140625 C 197.21875 129 197.582031 128.925781 197.960938 128.929688 C 198.339844 128.929688 198.703125 129.003906 199.050781 129.148438 C 199.402344 129.292969 199.710938 129.5 199.976562 129.769531 Z M 199.976562 129.769531 " fill-opacity="1" fill-rule="nonzero"/><path fill="#ffffff" d="M 170.046875 125.148438 C 170.316406 125.414062 170.523438 125.722656 170.667969 126.074219 C 170.8125 126.421875 170.886719 126.785156 170.886719 127.164062 C 170.886719 127.539062 170.816406 127.902344 170.675781 128.25 C 170.53125 128.597656 170.324219 128.90625 170.058594 129.171875 C 169.792969 129.4375 169.484375 129.644531 169.136719 129.785156 C 168.789062 129.929688 168.425781 130 168.046875 130 C 167.667969 130 167.304688 129.925781 166.957031 129.78125 C 166.605469 129.632812 166.296875 129.429688 166.03125 129.160156 C 165.761719 128.894531 165.554688 128.585938 165.410156 128.234375 C 165.265625 127.886719 165.191406 127.523438 165.1875 127.144531 C 165.1875 126.769531 165.257812 126.40625 165.402344 126.058594 C 165.546875 125.710938 165.75 125.402344 166.015625 125.136719 C 166.285156 124.871094 166.589844 124.664062 166.941406 124.523438 C 167.289062 124.378906 167.652344 124.308594 168.03125 124.308594 C 168.40625 124.308594 168.769531 124.382812 169.121094 124.527344 C 169.46875 124.675781 169.777344 124.878906 170.046875 125.148438 Z M 170.046875 125.148438 " fill-opacity="1" fill-rule="nonzero"/><path fill="#ffffff" d="M 155.765625 155.429688 C 156.035156 155.699219 156.242188 156.007812 156.386719 156.355469 C 156.53125 156.703125 156.605469 157.066406 156.609375 157.445312 C 156.609375 157.824219 156.539062 158.183594 156.394531 158.535156 C 156.25 158.882812 156.046875 159.1875 155.777344 159.453125 C 155.511719 159.722656 155.207031 159.925781 154.855469 160.070312 C 154.507812 160.210938 154.144531 160.285156 153.765625 160.28125 C 153.390625 160.28125 153.027344 160.207031 152.675781 160.0625 C 152.328125 159.917969 152.019531 159.710938 151.75 159.441406 C 151.480469 159.175781 151.273438 158.867188 151.128906 158.519531 C 150.984375 158.167969 150.910156 157.804688 150.910156 157.429688 C 150.90625 157.050781 150.980469 156.6875 151.121094 156.339844 C 151.265625 155.992188 151.472656 155.683594 151.738281 155.417969 C 152.003906 155.152344 152.3125 154.949219 152.660156 154.804688 C 153.007812 154.660156 153.371094 154.589844 153.75 154.589844 C 154.128906 154.59375 154.492188 154.664062 154.839844 154.8125 C 155.191406 154.957031 155.5 155.164062 155.765625 155.429688 Z M 155.765625 155.429688 " fill-opacity="1" fill-rule="nonzero"/><path fill="#ffffff" d="M 216.078125 147.707031 C 216.347656 147.976562 216.554688 148.285156 216.699219 148.632812 C 216.84375 148.984375 216.917969 149.34375 216.917969 149.722656 C 216.921875 150.101562 216.847656 150.464844 216.707031 150.8125 C 216.5625 151.160156 216.355469 151.464844 216.089844 151.734375 C 215.824219 152 215.515625 152.203125 215.167969 152.347656 C 214.820312 152.488281 214.457031 152.5625 214.078125 152.558594 C 213.699219 152.558594 213.335938 152.484375 212.988281 152.339844 C 212.636719 152.195312 212.328125 151.988281 212.0625 151.71875 C 211.792969 151.453125 211.585938 151.144531 211.441406 150.796875 C 211.296875 150.445312 211.222656 150.082031 211.21875 149.707031 C 211.21875 149.328125 211.289062 148.964844 211.433594 148.617188 C 211.578125 148.269531 211.78125 147.960938 212.050781 147.695312 C 212.316406 147.429688 212.621094 147.226562 212.972656 147.082031 C 213.320312 146.9375 213.683594 146.867188 214.0625 146.867188 C 214.4375 146.871094 214.800781 146.941406 215.152344 147.089844 C 215.5 147.234375 215.808594 147.441406 216.078125 147.707031 Z M 216.078125 147.707031 " fill-opacity="1" fill-rule="nonzero"/><path fill="#aab2d5" d="M 150.824219 172.414062 C 151.089844 172.683594 151.296875 172.992188 151.441406 173.339844 C 151.589844 173.691406 151.660156 174.054688 151.664062 174.429688 C 151.664062 174.808594 151.59375 175.171875 151.449219 175.519531 C 151.304688 175.867188 151.101562 176.175781 150.835938 176.441406 C 150.570312 176.707031 150.261719 176.910156 149.914062 177.054688 C 149.5625 177.199219 149.199219 177.269531 148.824219 177.265625 C 148.445312 177.265625 148.082031 177.191406 147.730469 177.046875 C 147.382812 176.902344 147.074219 176.695312 146.804688 176.429688 C 146.539062 176.160156 146.332031 175.851562 146.183594 175.503906 C 146.039062 175.152344 145.964844 174.789062 145.964844 174.414062 C 145.964844 174.035156 146.035156 173.671875 146.179688 173.324219 C 146.320312 172.976562 146.527344 172.667969 146.792969 172.402344 C 147.058594 172.136719 147.367188 171.933594 147.714844 171.789062 C 148.0625 171.644531 148.425781 171.574219 148.804688 171.578125 C 149.183594 171.578125 149.546875 171.652344 149.894531 171.796875 C 150.246094 171.941406 150.554688 172.148438 150.824219 172.414062 Z M 150.824219 172.414062 " fill-opacity="1" fill-rule="nonzero"/><path fill="#aab2d5" d="M 163.1875 169.945312 C 163.457031 170.214844 163.664062 170.523438 163.808594 170.871094 C 163.957031 171.222656 164.027344 171.585938 164.03125 171.960938 C 164.03125 172.339844 163.960938 172.703125 163.816406 173.050781 C 163.671875 173.398438 163.46875 173.707031 163.203125 173.972656 C 162.933594 174.238281 162.628906 174.441406 162.277344 174.585938 C 161.929688 174.730469 161.566406 174.800781 161.1875 174.796875 C 160.8125 174.796875 160.449219 174.722656 160.097656 174.578125 C 159.75 174.433594 159.441406 174.226562 159.171875 173.960938 C 158.902344 173.691406 158.695312 173.382812 158.550781 173.035156 C 158.40625 172.683594 158.332031 172.320312 158.332031 171.945312 C 158.332031 171.566406 158.402344 171.203125 158.546875 170.855469 C 158.6875 170.507812 158.894531 170.199219 159.160156 169.933594 C 159.425781 169.667969 159.734375 169.464844 160.082031 169.320312 C 160.429688 169.175781 160.792969 169.105469 161.171875 169.109375 C 161.550781 169.109375 161.914062 169.183594 162.261719 169.328125 C 162.613281 169.472656 162.921875 169.679688 163.1875 169.945312 Z M 163.1875 169.945312 " fill-opacity="1" fill-rule="nonzero"/><path fill="#aab2d5" d="M 180.746094 175.871094 C 181.015625 176.140625 181.222656 176.449219 181.367188 176.796875 C 181.511719 177.144531 181.585938 177.507812 181.585938 177.886719 C 181.589844 178.261719 181.515625 178.625 181.375 178.972656 C 181.230469 179.324219 181.023438 179.628906 180.757812 179.894531 C 180.492188 180.160156 180.183594 180.367188 179.835938 180.511719 C 179.488281 180.652344 179.125 180.722656 178.746094 180.722656 C 178.367188 180.722656 178.003906 180.648438 177.65625 180.503906 C 177.304688 180.359375 176.996094 180.152344 176.730469 179.882812 C 176.460938 179.617188 176.253906 179.308594 176.109375 178.957031 C 175.964844 178.609375 175.890625 178.246094 175.890625 177.867188 C 175.886719 177.492188 175.960938 177.128906 176.101562 176.78125 C 176.246094 176.433594 176.449219 176.125 176.71875 175.859375 C 176.984375 175.59375 177.292969 175.386719 177.640625 175.246094 C 177.988281 175.101562 178.351562 175.03125 178.730469 175.03125 C 179.105469 175.03125 179.472656 175.105469 179.820312 175.25 C 180.171875 175.398438 180.480469 175.605469 180.746094 175.871094 Z M 180.746094 175.871094 " fill-opacity="1" fill-rule="nonzero"/><path fill="#aab2d5" d="M 146.179688 186.320312 C 146.445312 186.589844 146.652344 186.894531 146.800781 187.246094 C 146.945312 187.59375 147.019531 187.957031 147.019531 188.335938 C 147.019531 188.710938 146.949219 189.074219 146.804688 189.421875 C 146.664062 189.773438 146.457031 190.078125 146.191406 190.34375 C 145.925781 190.609375 145.617188 190.816406 145.269531 190.957031 C 144.921875 191.101562 144.558594 191.171875 144.179688 191.171875 C 143.800781 191.171875 143.4375 191.097656 143.089844 190.953125 C 142.738281 190.804688 142.429688 190.601562 142.160156 190.332031 C 141.894531 190.066406 141.6875 189.757812 141.542969 189.40625 C 141.394531 189.058594 141.324219 188.695312 141.320312 188.316406 C 141.320312 187.941406 141.390625 187.578125 141.535156 187.230469 C 141.679688 186.882812 141.882812 186.574219 142.148438 186.308594 C 142.414062 186.042969 142.722656 185.835938 143.070312 185.695312 C 143.421875 185.550781 143.785156 185.480469 144.160156 185.480469 C 144.539062 185.480469 144.902344 185.554688 145.253906 185.699219 C 145.601562 185.847656 145.910156 186.054688 146.179688 186.320312 Z M 146.179688 186.320312 " fill-opacity="1" fill-rule="nonzero"/><path fill="#aab2d5" d="M 190.691406 237.265625 C 190.960938 237.535156 191.167969 237.84375 191.3125 238.191406 C 191.457031 238.539062 191.53125 238.902344 191.53125 239.28125 C 191.535156 239.660156 191.464844 240.023438 191.320312 240.371094 C 191.175781 240.71875 190.972656 241.023438 190.703125 241.289062 C 190.4375 241.558594 190.132812 241.761719 189.78125 241.90625 C 189.433594 242.046875 189.070312 242.121094 188.691406 242.117188 C 188.316406 242.117188 187.949219 242.042969 187.601562 241.898438 C 187.253906 241.753906 186.945312 241.546875 186.675781 241.277344 C 186.40625 241.011719 186.199219 240.703125 186.054688 240.355469 C 185.910156 240.003906 185.835938 239.640625 185.835938 239.265625 C 185.832031 238.886719 185.90625 238.523438 186.046875 238.175781 C 186.191406 237.828125 186.398438 237.519531 186.664062 237.253906 C 186.929688 236.988281 187.238281 236.785156 187.585938 236.640625 C 187.933594 236.496094 188.296875 236.425781 188.675781 236.425781 C 189.054688 236.429688 189.417969 236.5 189.765625 236.648438 C 190.117188 236.792969 190.425781 237 190.691406 237.265625 Z M 190.691406 237.265625 " fill-opacity="1" fill-rule="nonzero"/><path fill="#aab2d5" d="M 205.851562 211.628906 C 206.117188 211.898438 206.324219 212.207031 206.46875 212.554688 C 206.617188 212.902344 206.691406 213.265625 206.691406 213.644531 C 206.691406 214.019531 206.621094 214.382812 206.476562 214.730469 C 206.332031 215.082031 206.128906 215.386719 205.863281 215.652344 C 205.597656 215.917969 205.289062 216.125 204.941406 216.269531 C 204.589844 216.410156 204.226562 216.480469 203.851562 216.480469 C 203.472656 216.480469 203.109375 216.40625 202.757812 216.261719 C 202.410156 216.117188 202.101562 215.910156 201.832031 215.640625 C 201.566406 215.375 201.359375 215.066406 201.210938 214.714844 C 201.066406 214.367188 200.992188 214.003906 200.992188 213.625 C 200.992188 213.25 201.0625 212.886719 201.207031 212.539062 C 201.347656 212.191406 201.554688 211.882812 201.820312 211.617188 C 202.085938 211.351562 202.394531 211.144531 202.742188 211.003906 C 203.09375 210.859375 203.453125 210.789062 203.832031 210.789062 C 204.210938 210.789062 204.574219 210.863281 204.925781 211.007812 C 205.273438 211.15625 205.582031 211.363281 205.851562 211.628906 Z M 205.851562 211.628906 " fill-opacity="1" fill-rule="nonzero"/><path fill="#aab2d5" d="M 167.523438 230.179688 C 167.792969 230.445312 168 230.753906 168.144531 231.105469 C 168.289062 231.453125 168.363281 231.816406 168.363281 232.195312 C 168.367188 232.570312 168.292969 232.933594 168.152344 233.28125 C 168.007812 233.628906 167.800781 233.9375 167.535156 234.203125 C 167.269531 234.46875 166.960938 234.675781 166.613281 234.816406 C 166.265625 234.960938 165.902344 235.03125 165.523438 235.03125 C 165.144531 235.03125 164.78125 234.957031 164.433594 234.8125 C 164.082031 234.664062 163.773438 234.460938 163.507812 234.191406 C 163.238281 233.921875 163.03125 233.617188 162.886719 233.265625 C 162.742188 232.917969 162.667969 232.554688 162.667969 232.175781 C 162.664062 231.800781 162.738281 231.4375 162.878906 231.089844 C 163.023438 230.742188 163.226562 230.433594 163.496094 230.167969 C 163.761719 229.902344 164.070312 229.695312 164.417969 229.554688 C 164.765625 229.410156 165.128906 229.339844 165.507812 229.339844 C 165.882812 229.339844 166.25 229.414062 166.597656 229.558594 C 166.949219 229.707031 167.257812 229.910156 167.523438 230.179688 Z M 167.523438 230.179688 " fill-opacity="1" fill-rule="nonzero"/><path fill="#aab2d5" d="M 225.027344 170.855469 C 225.292969 171.121094 225.5 171.429688 225.644531 171.78125 C 225.792969 172.128906 225.867188 172.492188 225.867188 172.871094 C 225.867188 173.246094 225.796875 173.609375 225.652344 173.957031 C 225.507812 174.304688 225.304688 174.613281 225.039062 174.878906 C 224.773438 175.144531 224.464844 175.351562 224.117188 175.492188 C 223.765625 175.636719 223.402344 175.707031 223.027344 175.707031 C 222.648438 175.707031 222.285156 175.632812 221.933594 175.488281 C 221.585938 175.339844 221.277344 175.132812 221.007812 174.867188 C 220.742188 174.597656 220.535156 174.292969 220.386719 173.941406 C 220.242188 173.59375 220.167969 173.230469 220.167969 172.851562 C 220.167969 172.476562 220.238281 172.113281 220.382812 171.765625 C 220.523438 171.414062 220.730469 171.109375 220.996094 170.84375 C 221.261719 170.578125 221.570312 170.371094 221.917969 170.230469 C 222.269531 170.085938 222.632812 170.015625 223.007812 170.015625 C 223.386719 170.015625 223.75 170.089844 224.101562 170.234375 C 224.449219 170.382812 224.757812 170.585938 225.027344 170.855469 Z M 225.027344 170.855469 " fill-opacity="1" fill-rule="nonzero"/><path fill="#aab2d5" d="M 223.507812 213.5 C 223.773438 213.769531 223.980469 214.078125 224.125 214.425781 C 224.273438 214.773438 224.34375 215.136719 224.347656 215.515625 C 224.347656 215.894531 224.277344 216.253906 224.132812 216.605469 C 223.988281 216.953125 223.785156 217.257812 223.519531 217.523438 C 223.253906 217.789062 222.945312 217.996094 222.597656 218.140625 C 222.246094 218.28125 221.882812 218.351562 221.507812 218.351562 C 221.128906 218.351562 220.765625 218.277344 220.414062 218.132812 C 220.066406 217.988281 219.757812 217.78125 219.488281 217.511719 C 219.222656 217.246094 219.015625 216.9375 218.867188 216.585938 C 218.722656 216.238281 218.648438 215.875 218.648438 215.5 C 218.648438 215.121094 218.71875 214.757812 218.863281 214.410156 C 219.003906 214.0625 219.210938 213.753906 219.476562 213.488281 C 219.742188 213.222656 220.050781 213.019531 220.398438 212.875 C 220.746094 212.730469 221.109375 212.660156 221.488281 212.660156 C 221.867188 212.664062 222.230469 212.734375 222.578125 212.882812 C 222.929688 213.027344 223.238281 213.234375 223.507812 213.5 Z M 223.507812 213.5 " fill-opacity="1" fill-rule="nonzero"/><path fill="#aab2d5" d="M 222.578125 230.179688 C 222.847656 230.449219 223.054688 230.757812 223.199219 231.105469 C 223.34375 231.457031 223.417969 231.820312 223.417969 232.195312 C 223.421875 232.574219 223.347656 232.9375 223.207031 233.285156 C 223.0625 233.632812 222.855469 233.9375 222.589844 234.207031 C 222.324219 234.472656 222.015625 234.675781 221.667969 234.820312 C 221.320312 234.960938 220.957031 235.035156 220.578125 235.03125 C 220.199219 235.03125 219.835938 234.957031 219.488281 234.8125 C 219.136719 234.667969 218.828125 234.460938 218.5625 234.191406 C 218.292969 233.925781 218.085938 233.617188 217.941406 233.269531 C 217.796875 232.917969 217.722656 232.554688 217.71875 232.179688 C 217.71875 231.800781 217.789062 231.4375 217.933594 231.089844 C 218.078125 230.742188 218.28125 230.433594 218.550781 230.167969 C 218.816406 229.902344 219.121094 229.699219 219.472656 229.554688 C 219.820312 229.410156 220.183594 229.339844 220.5625 229.339844 C 220.9375 229.34375 221.300781 229.417969 221.652344 229.5625 C 222 229.707031 222.308594 229.914062 222.578125 230.179688 Z M 222.578125 230.179688 " fill-opacity="1" fill-rule="nonzero"/><path fill="#aab2d5" d="M 160.027344 227.605469 L 159.148438 226.277344 C 156.035156 221.53125 153.671875 216.441406 152.058594 211.003906 C 150.441406 205.5625 149.648438 200.007812 149.667969 194.335938 C 149.667969 189.640625 150.21875 185.011719 151.320312 180.449219 L 151.554688 179.496094 L 152.503906 179.265625 C 161.164062 177.503906 169.910156 176.589844 178.75 176.523438 L 178.855469 179.734375 C 170.574219 179.84375 162.363281 180.660156 154.222656 182.175781 C 153.328125 186.175781 152.882812 190.230469 152.882812 194.339844 C 152.867188 199.425781 153.546875 204.417969 154.921875 209.3125 C 156.296875 214.207031 158.316406 218.824219 160.976562 223.15625 L 164.519531 220.882812 C 162.074219 216.882812 160.21875 212.628906 158.960938 208.117188 C 157.699219 203.605469 157.078125 199.007812 157.097656 194.324219 C 157.09375 191.847656 157.265625 189.382812 157.617188 186.929688 L 157.785156 185.75 L 158.964844 185.574219 C 161.421875 185.199219 164.195312 184.875 167.214844 184.613281 L 167.496094 187.8125 C 165.019531 188.03125 162.726562 188.285156 160.644531 188.574219 C 160.417969 190.484375 160.304688 192.402344 160.304688 194.324219 C 160.28125 198.96875 160.933594 203.519531 162.257812 207.976562 C 163.582031 212.429688 165.519531 216.597656 168.074219 220.480469 L 168.96875 221.835938 Z M 160.027344 227.605469 " fill-opacity="1" fill-rule="nonzero"/><path fill="#aab2d5" d="M 222.957031 216.09375 L 219.96875 214.898438 C 222.609375 208.292969 223.917969 201.4375 223.894531 194.324219 C 223.894531 190.222656 223.449219 186.167969 222.550781 182.164062 C 218.484375 181.269531 210.589844 179.664062 192.460938 179.574219 L 190.863281 179.574219 L 190.863281 168.949219 L 192.480469 168.949219 C 200.386719 168.9375 208.261719 169.417969 216.109375 170.394531 L 216.203125 173.636719 C 208.855469 172.714844 201.484375 172.226562 194.078125 172.175781 L 194.078125 176.375 C 213.117188 176.570312 220.925781 178.453125 224.265625 179.265625 L 225.21875 179.5 L 225.449219 180.449219 C 226.550781 185 227.105469 189.628906 227.105469 194.328125 C 227.128906 201.851562 225.746094 209.105469 222.957031 216.09375 Z M 222.957031 216.09375 " fill-opacity="1" fill-rule="nonzero"/><path fill="#aab2d5" d="M 191.171875 233.765625 L 181.050781 233.765625 C 179.367188 233.777344 177.761719 233.433594 176.234375 232.730469 C 174.703125 232.027344 173.398438 231.03125 172.316406 229.746094 C 171.289062 228.507812 170.578125 227.109375 170.179688 225.550781 C 169.78125 223.996094 169.734375 222.425781 170.039062 220.847656 L 172.460938 208.210938 C 171.492188 206.832031 170.75 205.339844 170.238281 203.730469 C 169.726562 202.125 169.472656 200.480469 169.46875 198.792969 C 169.5 197.765625 169.617188 196.75 169.820312 195.742188 C 170.027344 194.734375 170.3125 193.753906 170.683594 192.792969 C 171.058594 191.835938 171.507812 190.914062 172.035156 190.035156 C 172.566406 189.152344 173.164062 188.324219 173.835938 187.542969 C 174.507812 186.761719 175.238281 186.046875 176.03125 185.390625 C 176.824219 184.738281 177.667969 184.152344 178.558594 183.644531 C 179.453125 183.132812 180.382812 182.699219 181.347656 182.347656 C 182.3125 181.992188 183.304688 181.726562 184.316406 181.539062 L 184.316406 172.183594 C 176.644531 172.25 168.992188 172.703125 161.367188 173.539062 L 160.992188 170.347656 C 169.273438 169.445312 177.578125 168.980469 185.910156 168.949219 L 187.53125 168.9375 L 187.53125 184.304688 L 186.132812 184.488281 C 185.242188 184.578125 184.367188 184.75 183.507812 184.996094 C 182.648438 185.242188 181.816406 185.566406 181.015625 185.960938 C 180.210938 186.359375 179.449219 186.824219 178.730469 187.355469 C 178.011719 187.886719 177.347656 188.480469 176.734375 189.132812 C 176.121094 189.785156 175.570312 190.484375 175.085938 191.234375 C 174.597656 191.984375 174.179688 192.773438 173.835938 193.597656 C 173.488281 194.421875 173.21875 195.273438 173.027344 196.144531 C 172.832031 197.019531 172.71875 197.902344 172.683594 198.792969 C 172.6875 200.25 172.925781 201.667969 173.398438 203.046875 C 173.875 204.425781 174.554688 205.695312 175.445312 206.847656 L 175.875 207.417969 L 173.203125 221.453125 C 172.988281 222.558594 173.019531 223.660156 173.300781 224.75 C 173.578125 225.84375 174.078125 226.824219 174.796875 227.695312 C 175.574219 228.613281 176.507812 229.320312 177.605469 229.820312 C 178.699219 230.320312 179.851562 230.5625 181.054688 230.546875 L 191.175781 230.546875 Z M 191.171875 233.765625 " fill-opacity="1" fill-rule="nonzero"/><path fill="#aab2d5" d="M 188.988281 240.613281 L 187.800781 237.628906 C 191.710938 236.050781 195.328125 233.96875 198.65625 231.382812 C 201.980469 228.792969 204.886719 225.800781 207.375 222.398438 C 208.859375 220.375 210.171875 218.25 211.316406 216.019531 C 212.457031 213.785156 213.417969 211.476562 214.191406 209.09375 C 214.964844 206.707031 215.542969 204.277344 215.929688 201.800781 C 216.3125 199.324219 216.5 196.832031 216.484375 194.324219 C 216.484375 192.398438 216.371094 190.484375 216.140625 188.574219 C 212.164062 188.011719 207.691406 187.597656 202.792969 187.339844 C 204.242188 188.898438 205.355469 190.667969 206.140625 192.644531 C 206.921875 194.621094 207.316406 196.675781 207.328125 198.800781 C 207.324219 200.488281 207.070312 202.132812 206.558594 203.738281 C 206.046875 205.347656 205.308594 206.839844 204.335938 208.21875 L 205.324219 213.347656 L 202.152344 213.945312 L 200.917969 207.425781 L 201.347656 206.859375 C 202.238281 205.703125 202.921875 204.433594 203.398438 203.054688 C 203.871094 201.671875 204.109375 200.253906 204.117188 198.792969 C 204.097656 197.59375 203.929688 196.417969 203.613281 195.261719 C 203.296875 194.105469 202.839844 193.007812 202.246094 191.964844 C 201.648438 190.925781 200.933594 189.976562 200.097656 189.117188 C 199.257812 188.257812 198.328125 187.515625 197.304688 186.890625 L 192.640625 183.925781 L 198.609375 183.925781 C 205.042969 184.109375 211.449219 184.65625 217.820312 185.570312 L 219 185.75 L 219.171875 186.925781 C 219.523438 189.386719 219.703125 191.851562 219.699219 194.320312 C 219.714844 197 219.519531 199.660156 219.105469 202.304688 C 218.695312 204.949219 218.078125 207.542969 217.25 210.089844 C 216.421875 212.636719 215.398438 215.101562 214.179688 217.484375 C 212.957031 219.867188 211.554688 222.136719 209.96875 224.296875 C 207.304688 227.941406 204.1875 231.148438 200.621094 233.921875 C 197.058594 236.691406 193.179688 238.921875 188.988281 240.613281 Z M 188.988281 240.613281 " fill-opacity="1" fill-rule="nonzero"/><path fill="#aab2d5" d="M 188.390625 256.175781 C 187.855469 256.1875 187.328125 256.125 186.808594 255.984375 C 183.625 254.976562 180.539062 253.722656 177.554688 252.230469 C 174.570312 250.734375 171.722656 249.015625 169.007812 247.070312 C 166.296875 245.125 163.75 242.976562 161.378906 240.632812 C 159.003906 238.285156 156.832031 235.765625 154.855469 233.078125 C 152.804688 230.285156 150.988281 227.351562 149.40625 224.273438 C 147.824219 221.191406 146.5 218.003906 145.425781 214.714844 C 144.355469 211.421875 143.550781 208.066406 143.015625 204.644531 C 142.480469 201.226562 142.222656 197.785156 142.238281 194.324219 C 142.238281 192.148438 142.34375 189.960938 142.554688 187.824219 L 145.753906 188.136719 C 145.554688 190.171875 145.453125 192.253906 145.453125 194.316406 C 145.4375 197.609375 145.683594 200.878906 146.191406 204.132812 C 146.699219 207.382812 147.460938 210.574219 148.480469 213.707031 C 149.5 216.835938 150.757812 219.867188 152.261719 222.796875 C 153.765625 225.722656 155.492188 228.515625 157.441406 231.167969 C 159.316406 233.722656 161.382812 236.113281 163.636719 238.339844 C 165.886719 240.570312 168.304688 242.605469 170.878906 244.453125 C 173.453125 246.300781 176.160156 247.933594 178.996094 249.351562 C 181.828125 250.769531 184.757812 251.957031 187.78125 252.914062 C 187.761719 252.882812 187.992188 252.949219 188.382812 252.949219 C 188.605469 252.957031 188.828125 252.9375 189.046875 252.902344 C 192.0625 251.941406 194.988281 250.75 197.816406 249.332031 C 200.644531 247.910156 203.34375 246.277344 205.914062 244.429688 C 208.484375 242.582031 210.894531 240.546875 213.144531 238.320312 C 215.390625 236.09375 217.453125 233.707031 219.324219 231.152344 L 221.914062 233.054688 C 219.9375 235.746094 217.761719 238.265625 215.386719 240.613281 C 213.011719 242.960938 210.46875 245.109375 207.753906 247.054688 C 205.039062 249 202.1875 250.722656 199.199219 252.21875 C 196.210938 253.714844 193.125 254.964844 189.941406 255.976562 C 189.433594 256.109375 188.917969 256.175781 188.390625 256.175781 Z M 188.390625 248.710938 L 187.875 248.539062 C 183.339844 246.996094 179.074219 244.90625 175.078125 242.265625 C 171.082031 239.621094 167.488281 236.515625 164.296875 232.949219 L 166.6875 230.800781 C 169.632812 234.09375 172.945312 236.96875 176.617188 239.425781 C 180.289062 241.886719 184.210938 243.847656 188.382812 245.316406 C 193.375 243.546875 198 241.082031 202.253906 237.921875 C 206.507812 234.761719 210.203125 231.050781 213.335938 226.78125 C 214.519531 225.179688 215.605469 223.515625 216.601562 221.792969 L 217.34375 220.53125 L 224.09375 223.605469 C 225.980469 220.011719 227.503906 216.269531 228.667969 212.382812 C 229.832031 208.496094 230.613281 204.53125 231.015625 200.496094 C 231.414062 196.457031 231.421875 192.417969 231.042969 188.378906 C 230.664062 184.339844 229.898438 180.371094 228.753906 176.480469 C 228.378906 176.226562 227.976562 176.015625 227.550781 175.855469 L 222.515625 174.152344 L 223.546875 171.109375 L 228.582031 172.816406 C 229.789062 173.203125 230.792969 173.882812 231.601562 174.855469 L 231.703125 175.101562 C 232.984375 179.347656 233.832031 183.679688 234.246094 188.097656 C 234.660156 192.515625 234.628906 196.933594 234.15625 201.34375 C 233.683594 205.753906 232.777344 210.078125 231.433594 214.304688 C 230.09375 218.535156 228.34375 222.589844 226.1875 226.472656 L 225.464844 227.757812 L 218.648438 224.652344 C 217.804688 226.035156 216.894531 227.386719 215.941406 228.683594 C 214.257812 230.972656 212.40625 233.121094 210.398438 235.132812 C 208.386719 237.140625 206.234375 238.988281 203.941406 240.671875 C 201.648438 242.355469 199.242188 243.855469 196.722656 245.171875 C 194.199219 246.488281 191.59375 247.609375 188.902344 248.53125 Z M 149.167969 175.882812 L 148.246094 172.800781 L 154.722656 170.960938 L 155.140625 174.101562 Z M 149.167969 175.882812 " fill-opacity="1" fill-rule="nonzero"/><path fill="#ffffff" d="M 224.636719 159.136719 L 221.421875 159.136719 C 221.421875 138.21875 206.601562 121.195312 188.390625 121.195312 C 184.84375 121.214844 181.410156 121.84375 178.085938 123.082031 C 174.765625 124.316406 171.757812 126.085938 169.0625 128.386719 L 167.003906 125.917969 C 168.484375 124.65625 170.0625 123.53125 171.742188 122.546875 C 173.417969 121.5625 175.167969 120.730469 176.992188 120.054688 C 178.816406 119.378906 180.683594 118.867188 182.597656 118.519531 C 184.511719 118.167969 186.441406 117.992188 188.390625 117.980469 C 208.378906 117.980469 224.636719 136.445312 224.636719 159.136719 Z M 224.636719 159.136719 " fill-opacity="1" fill-rule="nonzero"/><path fill="#ffffff" d="M 155.390625 157.78125 L 152.171875 157.683594 C 152.289062 152.980469 153.132812 148.410156 154.707031 143.972656 C 156.28125 139.535156 158.503906 135.453125 161.375 131.722656 L 163.902344 133.703125 C 161.242188 137.164062 159.183594 140.949219 157.726562 145.066406 C 156.273438 149.179688 155.492188 153.417969 155.390625 157.78125 Z M 155.390625 157.78125 " fill-opacity="1" fill-rule="nonzero"/><path fill="#ffffff" d="M 162.933594 156.929688 L 159.714844 156.699219 C 159.789062 155.03125 159.996094 153.382812 160.34375 151.753906 C 160.6875 150.121094 161.164062 148.53125 161.777344 146.980469 C 162.386719 145.429688 163.121094 143.9375 163.980469 142.507812 C 164.835938 141.078125 165.808594 139.730469 166.890625 138.460938 C 167.972656 137.191406 169.152344 136.019531 170.429688 134.949219 C 171.707031 133.875 173.066406 132.914062 174.503906 132.066406 C 175.941406 131.21875 177.4375 130.496094 178.996094 129.898438 C 180.550781 129.296875 182.148438 128.832031 183.785156 128.496094 C 186.277344 128.066406 188.785156 127.988281 191.300781 128.261719 C 193.820312 128.535156 196.25 129.15625 198.589844 130.117188 L 197.351562 133.082031 C 195.296875 132.226562 193.160156 131.679688 190.949219 131.441406 C 188.734375 131.199219 186.53125 131.273438 184.339844 131.664062 C 182.878906 131.96875 181.453125 132.390625 180.066406 132.929688 C 178.675781 133.472656 177.34375 134.121094 176.0625 134.882812 C 174.78125 135.644531 173.570312 136.507812 172.433594 137.472656 C 171.296875 138.433594 170.246094 139.484375 169.285156 140.621094 C 168.320312 141.757812 167.460938 142.964844 166.695312 144.242188 C 165.933594 145.523438 165.285156 146.855469 164.742188 148.246094 C 164.203125 149.632812 163.78125 151.054688 163.476562 152.511719 C 163.171875 153.96875 162.992188 155.441406 162.933594 156.929688 Z M 162.933594 156.929688 " fill-opacity="1" fill-rule="nonzero"/><path fill="#ffffff" d="M 212.566406 150.179688 C 211.730469 147.472656 210.511719 144.945312 208.910156 142.605469 C 207.304688 140.265625 205.390625 138.214844 203.164062 136.453125 L 205.144531 133.914062 C 207.628906 135.878906 209.769531 138.167969 211.558594 140.78125 C 213.351562 143.390625 214.714844 146.210938 215.652344 149.234375 Z M 212.566406 150.179688 " fill-opacity="1" fill-rule="nonzero"/><path fill="#ffffff" d="M 319.707031 296.324219 C 317.773438 298.789062 315.773438 301.195312 313.703125 303.546875 C 311.636719 305.902344 309.503906 308.191406 307.304688 310.421875 C 305.109375 312.652344 302.847656 314.820312 300.527344 316.925781 C 298.207031 319.027344 295.832031 321.0625 293.394531 323.03125 C 290.960938 325 288.472656 326.898438 285.929688 328.726562 C 283.386719 330.550781 280.796875 332.304688 278.15625 333.984375 C 275.515625 335.667969 272.828125 337.269531 270.097656 338.796875 C 267.363281 340.328125 264.589844 341.777344 261.777344 343.148438 C 258.964844 344.519531 256.113281 345.808594 253.226562 347.019531 C 250.34375 348.226562 247.421875 349.355469 244.472656 350.398438 C 241.523438 351.441406 238.546875 352.402344 235.542969 353.277344 C 232.539062 354.152344 229.511719 354.941406 226.464844 355.644531 C 223.414062 356.347656 220.347656 356.964844 217.265625 357.496094 C 214.179688 358.027344 211.085938 358.46875 207.976562 358.820312 C 204.867188 359.175781 201.753906 359.441406 198.628906 359.621094 C 195.503906 359.796875 192.378906 359.886719 189.25 359.886719 C 186.121094 359.890625 182.996094 359.800781 179.871094 359.625 C 176.75 359.449219 173.632812 359.183594 170.523438 358.828125 C 167.414062 358.476562 164.320312 358.035156 161.234375 357.507812 C 158.152344 356.976562 155.085938 356.363281 152.035156 355.660156 C 148.988281 354.957031 145.960938 354.167969 142.957031 353.296875 C 139.949219 352.421875 136.972656 351.464844 134.023438 350.421875 C 131.074219 349.378906 128.152344 348.25 125.265625 347.042969 C 122.378906 345.835938 119.53125 344.546875 116.714844 343.175781 C 113.902344 341.808594 111.128906 340.359375 108.394531 338.832031 C 105.664062 337.304688 102.976562 335.703125 100.335938 334.023438 C 97.691406 332.34375 95.101562 330.589844 92.558594 328.765625 C 90.015625 326.9375 87.527344 325.039062 85.089844 323.074219 C 82.652344 321.105469 80.277344 319.070312 77.953125 316.96875 C 75.632812 314.867188 73.375 312.703125 71.175781 310.472656 C 68.976562 308.242188 66.84375 305.949219 64.773438 303.597656 C 62.703125 301.246094 60.703125 298.839844 58.769531 296.375 L 101.027344 263.09375 C 102.335938 264.757812 103.6875 266.386719 105.085938 267.976562 C 106.484375 269.566406 107.929688 271.113281 109.414062 272.621094 C 110.902344 274.128906 112.429688 275.59375 113.996094 277.015625 C 115.566406 278.4375 117.175781 279.8125 118.820312 281.140625 C 120.46875 282.472656 122.152344 283.753906 123.871094 284.988281 C 125.589844 286.222656 127.34375 287.40625 129.128906 288.542969 C 130.914062 289.679688 132.730469 290.761719 134.578125 291.792969 C 136.425781 292.828125 138.300781 293.804688 140.203125 294.730469 C 142.105469 295.65625 144.03125 296.53125 145.984375 297.347656 C 147.933594 298.164062 149.910156 298.925781 151.902344 299.628906 C 153.898438 300.335938 155.910156 300.980469 157.941406 301.574219 C 159.972656 302.164062 162.019531 302.695312 164.082031 303.171875 C 166.140625 303.644531 168.214844 304.0625 170.300781 304.421875 C 172.382812 304.777344 174.476562 305.074219 176.578125 305.3125 C 178.679688 305.554688 180.789062 305.730469 182.898438 305.851562 C 185.011719 305.972656 187.125 306.03125 189.238281 306.03125 C 191.355469 306.03125 193.46875 305.96875 195.578125 305.847656 C 197.691406 305.730469 199.796875 305.546875 201.898438 305.308594 C 204 305.070312 206.09375 304.769531 208.179688 304.414062 C 210.261719 304.054688 212.335938 303.636719 214.398438 303.160156 C 216.457031 302.683594 218.503906 302.152344 220.535156 301.558594 C 222.566406 300.96875 224.578125 300.320312 226.574219 299.613281 C 228.566406 298.90625 230.539062 298.144531 232.492188 297.328125 C 234.441406 296.511719 236.371094 295.640625 238.273438 294.710938 C 240.175781 293.785156 242.046875 292.804688 243.894531 291.773438 C 245.742188 290.738281 247.558594 289.65625 249.34375 288.519531 C 251.128906 287.382812 252.882812 286.195312 254.601562 284.960938 C 256.320312 283.726562 258 282.445312 259.648438 281.113281 C 261.292969 279.78125 262.902344 278.40625 264.46875 276.984375 C 266.039062 275.5625 267.566406 274.097656 269.050781 272.589844 C 270.535156 271.082031 271.976562 269.53125 273.375 267.941406 C 274.773438 266.351562 276.128906 264.722656 277.433594 263.054688 Z M 319.707031 296.324219 " fill-opacity="1" fill-rule="nonzero"/><g fill="#ff1616" fill-opacity="1"><g transform="translate(71.49918, 293.29429)"><g><path d="M 10.8125 10.9375 C 7.75 7.945312 6.289062 4.726562 6.4375 1.28125 C 6.59375 -2.164062 8.363281 -5.632812 11.75 -9.125 C 15.132812 -12.601562 18.539062 -14.457031 21.96875 -14.6875 C 25.40625 -14.925781 28.65625 -13.550781 31.71875 -10.5625 C 34.789062 -7.570312 36.253906 -4.367188 36.109375 -0.953125 C 35.972656 2.453125 34.203125 5.90625 30.796875 9.40625 C 27.410156 12.894531 24 14.769531 20.5625 15.03125 C 17.132812 15.289062 13.882812 13.925781 10.8125 10.9375 Z M 14.09375 7.5625 C 15.863281 9.28125 17.828125 9.957031 19.984375 9.59375 C 22.148438 9.238281 24.398438 7.859375 26.734375 5.453125 C 29.085938 3.035156 30.40625 0.757812 30.6875 -1.375 C 30.976562 -3.507812 30.226562 -5.445312 28.4375 -7.1875 C 26.65625 -8.925781 24.691406 -9.628906 22.546875 -9.296875 C 20.410156 -8.960938 18.164062 -7.585938 15.8125 -5.171875 C 13.476562 -2.765625 12.160156 -0.476562 11.859375 1.6875 C 11.566406 3.863281 12.3125 5.820312 14.09375 7.5625 Z M 14.09375 7.5625 "/></g></g></g><g fill="#ff1616" fill-opacity="1"><g transform="translate(96.051155, 316.383147)"><g><path d="M 4.625 3.046875 C 3.375 2.242188 2.96875 1.5 3.40625 0.8125 L 17.796875 -21.671875 C 18.078125 -22.117188 18.382812 -22.382812 18.71875 -22.46875 C 19.0625 -22.5625 19.457031 -22.46875 19.90625 -22.1875 L 26.5 -17.96875 C 29.445312 -16.082031 31.28125 -14.140625 32 -12.140625 C 32.726562 -10.140625 32.398438 -8.054688 31.015625 -5.890625 C 30.140625 -4.515625 29.019531 -3.566406 27.65625 -3.046875 C 26.300781 -2.523438 24.828125 -2.425781 23.234375 -2.75 L 23.140625 -2.59375 C 23.546875 -2.082031 23.773438 -1.347656 23.828125 -0.390625 C 23.878906 0.554688 23.789062 1.625 23.5625 2.8125 L 21.78125 12.234375 C 21.664062 12.628906 21.585938 12.859375 21.546875 12.921875 C 21.253906 13.367188 20.472656 13.1875 19.203125 12.375 L 18.140625 11.6875 C 17.097656 11.019531 16.628906 10.40625 16.734375 9.84375 L 18.40625 1.140625 C 18.601562 -0.0859375 18.53125 -1.078125 18.1875 -1.828125 C 17.851562 -2.578125 17.097656 -3.328125 15.921875 -4.078125 L 13.890625 -5.375 L 8.03125 3.78125 C 7.59375 4.46875 6.753906 4.410156 5.515625 3.609375 Z M 20.28125 -6.921875 C 21.175781 -6.347656 22.175781 -6.195312 23.28125 -6.46875 C 24.382812 -6.75 25.238281 -7.363281 25.84375 -8.3125 C 26.488281 -9.320312 26.671875 -10.304688 26.390625 -11.265625 C 26.109375 -12.234375 25.414062 -13.070312 24.3125 -13.78125 L 20.734375 -16.0625 L 16.453125 -9.375 Z M 20.28125 -6.921875 "/></g></g></g><g fill="#ff1616" fill-opacity="1"><g transform="translate(120.082427, 331.457711)"><g><path d="M 2.265625 1.015625 C 0.835938 0.429688 0.226562 -0.113281 0.4375 -0.625 C 0.46875 -0.707031 0.609375 -0.910156 0.859375 -1.234375 L 19.859375 -22.90625 C 20.210938 -23.332031 20.972656 -23.3125 22.140625 -22.84375 L 23.859375 -22.15625 C 25.003906 -21.6875 25.566406 -21.171875 25.546875 -20.609375 L 24.140625 8.1875 C 24.117188 8.476562 24.070312 8.71875 24 8.90625 C 23.789062 9.414062 23.0625 9.414062 21.8125 8.90625 L 20.609375 8.421875 C 19.460938 7.960938 18.898438 7.445312 18.921875 6.875 L 19.28125 0.8125 L 9.3125 -3.21875 L 5.359375 1.390625 C 4.984375 1.816406 4.316406 1.835938 3.359375 1.453125 Z M 19.578125 -4.140625 L 20.203125 -13.84375 C 20.222656 -14.53125 20.363281 -15.414062 20.625 -16.5 L 20.453125 -16.5625 C 20.367188 -16.414062 20.171875 -16.101562 19.859375 -15.625 C 19.546875 -15.144531 19.226562 -14.726562 18.90625 -14.375 L 12.515625 -6.984375 Z M 19.578125 -4.140625 "/></g></g></g><g fill="#ff1616" fill-opacity="1"><g transform="translate(146.609898, 341.916487)"><g><path d="M 15.421875 3.40625 C 10.804688 2.476562 7.644531 0.601562 5.9375 -2.21875 C 4.238281 -5.050781 3.898438 -8.992188 4.921875 -14.046875 C 6.878906 -23.816406 12.398438 -27.789062 21.484375 -25.96875 C 22.828125 -25.695312 24.15625 -25.28125 25.46875 -24.71875 C 26.789062 -24.15625 27.796875 -23.578125 28.484375 -22.984375 C 29.078125 -22.453125 29.332031 -21.96875 29.25 -21.53125 C 29.175781 -21.207031 28.957031 -20.800781 28.59375 -20.3125 C 28.226562 -19.832031 27.832031 -19.421875 27.40625 -19.078125 C 26.988281 -18.742188 26.640625 -18.609375 26.359375 -18.671875 C 26.273438 -18.679688 25.972656 -18.878906 25.453125 -19.265625 C 24.929688 -19.648438 24.257812 -20.039062 23.4375 -20.4375 C 22.625 -20.832031 21.640625 -21.144531 20.484375 -21.375 C 17.765625 -21.914062 15.585938 -21.492188 13.953125 -20.109375 C 12.316406 -18.734375 11.15625 -16.332031 10.46875 -12.90625 C 9.789062 -9.519531 9.9375 -6.851562 10.90625 -4.90625 C 11.875 -2.96875 13.691406 -1.734375 16.359375 -1.203125 C 17.617188 -0.953125 18.738281 -0.867188 19.71875 -0.953125 C 20.707031 -1.046875 21.671875 -1.210938 22.609375 -1.453125 C 23.085938 -1.585938 23.410156 -1.640625 23.578125 -1.609375 C 23.878906 -1.546875 24.148438 -1.285156 24.390625 -0.828125 C 24.628906 -0.367188 24.804688 0.140625 24.921875 0.703125 C 25.035156 1.273438 25.070312 1.675781 25.03125 1.90625 C 24.894531 2.539062 24.3125 3.023438 23.28125 3.359375 C 22.300781 3.671875 21.082031 3.820312 19.625 3.8125 C 18.164062 3.8125 16.765625 3.675781 15.421875 3.40625 Z M 15.421875 3.40625 "/></g></g></g><g fill="#ff1616" fill-opacity="1"><g transform="translate(174.585157, 347.08419)"><g><path d="M 5.046875 0.15625 C 4.503906 0.144531 4.113281 0.0078125 3.875 -0.25 C 3.632812 -0.507812 3.519531 -0.90625 3.53125 -1.4375 L 4.375 -28.140625 C 4.40625 -28.953125 5.164062 -29.332031 6.65625 -29.28125 L 7.703125 -29.25 C 8.484375 -29.226562 9.039062 -29.113281 9.375 -28.90625 C 9.71875 -28.695312 9.882812 -28.382812 9.875 -27.96875 L 9.125 -4.421875 L 19.0625 -4.109375 C 19.457031 -4.097656 19.734375 -3.941406 19.890625 -3.640625 C 20.054688 -3.347656 20.128906 -2.890625 20.109375 -2.265625 L 20.078125 -1.1875 C 20.054688 -0.5625 19.957031 -0.109375 19.78125 0.171875 C 19.601562 0.460938 19.316406 0.601562 18.921875 0.59375 Z M 5.046875 0.15625 "/></g></g></g><g fill="#ff1616" fill-opacity="1"><g transform="translate(197.210665, 347.720436)"><g><path d="M 5.015625 -0.625 C 4.472656 -0.5625 4.0625 -0.640625 3.78125 -0.859375 C 3.5 -1.078125 3.328125 -1.445312 3.265625 -1.96875 L 0.015625 -28.0625 C -0.0546875 -28.625 0.015625 -29.039062 0.234375 -29.3125 C 0.453125 -29.582031 0.832031 -29.75 1.375 -29.8125 L 15.9375 -31.625 C 16.332031 -31.675781 16.640625 -31.570312 16.859375 -31.3125 C 17.078125 -31.050781 17.226562 -30.597656 17.3125 -29.953125 L 17.4375 -28.875 C 17.519531 -28.226562 17.484375 -27.757812 17.328125 -27.46875 C 17.179688 -27.175781 16.910156 -27.003906 16.515625 -26.953125 L 5.859375 -25.625 L 6.765625 -18.359375 L 16.265625 -19.546875 C 16.660156 -19.597656 16.960938 -19.492188 17.171875 -19.234375 C 17.390625 -18.984375 17.539062 -18.535156 17.625 -17.890625 L 17.75 -16.8125 C 17.832031 -16.175781 17.800781 -15.707031 17.65625 -15.40625 C 17.519531 -15.113281 17.253906 -14.941406 16.859375 -14.890625 L 7.359375 -13.703125 L 8.34375 -5.78125 L 19.046875 -7.125 C 19.441406 -7.164062 19.742188 -7.054688 19.953125 -6.796875 C 20.171875 -6.546875 20.320312 -6.101562 20.40625 -5.46875 L 20.546875 -4.390625 C 20.617188 -3.753906 20.582031 -3.28125 20.4375 -2.96875 C 20.289062 -2.664062 20.019531 -2.492188 19.625 -2.453125 Z M 5.015625 -0.625 "/></g></g></g><g fill="#2b7f93" fill-opacity="1"><g transform="translate(221.614079, 344.192246)"><g/></g></g><g fill="#757fb2" fill-opacity="1"><g transform="translate(233.69493, 341.812634)"><g><path d="M 14.328125 -5.5625 C 10.367188 -3.925781 6.835938 -3.863281 3.734375 -5.375 C 0.628906 -6.894531 -1.84375 -9.90625 -3.6875 -14.40625 C -5.53125 -18.90625 -5.875 -22.769531 -4.71875 -26 C -3.5625 -29.238281 -1.003906 -31.675781 2.953125 -33.3125 C 6.921875 -34.9375 10.441406 -35 13.515625 -33.5 C 16.585938 -32.007812 19.050781 -29.007812 20.90625 -24.5 C 22.75 -20 23.101562 -16.125 21.96875 -12.875 C 20.84375 -9.625 18.296875 -7.1875 14.328125 -5.5625 Z M 12.546875 -9.921875 C 14.828125 -10.847656 16.234375 -12.375 16.765625 -14.5 C 17.296875 -16.632812 16.925781 -19.25 15.65625 -22.34375 C 14.375 -25.457031 12.804688 -27.570312 10.953125 -28.6875 C 9.109375 -29.800781 7.035156 -29.890625 4.734375 -28.953125 C 2.429688 -28.003906 1.003906 -26.476562 0.453125 -24.375 C -0.0859375 -22.28125 0.28125 -19.675781 1.5625 -16.5625 C 2.832031 -13.46875 4.40625 -11.347656 6.28125 -10.203125 C 8.15625 -9.066406 10.242188 -8.972656 12.546875 -9.921875 Z M 12.546875 -9.921875 "/></g></g></g><g fill="#757fb2" fill-opacity="1"><g transform="translate(264.986024, 328.5546)"><g><path d="M 4.5 -3.03125 C 3.269531 -2.1875 2.421875 -2.097656 1.953125 -2.765625 L -13.546875 -25.015625 C -14.003906 -25.679688 -13.617188 -26.4375 -12.390625 -27.28125 L -11.15625 -28.15625 C -10.644531 -28.5 -10.195312 -28.722656 -9.8125 -28.828125 C -9.425781 -28.929688 -9.023438 -28.882812 -8.609375 -28.6875 L 9.578125 -21.359375 C 10.503906 -21.015625 11.390625 -20.609375 12.234375 -20.140625 L 12.359375 -20.265625 C 11.929688 -20.765625 11.359375 -21.53125 10.640625 -22.5625 L 1.59375 -35.546875 C 1.132812 -36.210938 1.515625 -36.972656 2.734375 -37.828125 L 3.484375 -38.34375 C 4.703125 -39.195312 5.539062 -39.289062 6 -38.625 L 21.5 -16.375 C 21.96875 -15.707031 21.59375 -14.945312 20.375 -14.09375 L 19.28125 -13.328125 C 18.789062 -12.992188 18.359375 -12.78125 17.984375 -12.6875 C 17.617188 -12.601562 17.234375 -12.640625 16.828125 -12.796875 L -1.75 -20.21875 C -2.757812 -20.59375 -3.628906 -20.992188 -4.359375 -21.421875 L -4.484375 -21.28125 C -4.066406 -20.78125 -3.5 -20.015625 -2.78125 -18.984375 L 6.375 -5.828125 C 6.84375 -5.160156 6.46875 -4.40625 5.25 -3.5625 Z M 4.5 -3.03125 "/></g></g></g><g fill="#757fb2" fill-opacity="1"><g transform="translate(291.72049, 309.183289)"><g><path d="M 3.515625 -3.625 C 3.140625 -3.226562 2.773438 -3.023438 2.421875 -3.015625 C 2.066406 -3.015625 1.695312 -3.203125 1.3125 -3.578125 L -17.546875 -21.90625 C -17.941406 -22.300781 -18.132812 -22.671875 -18.125 -23.015625 C -18.125 -23.359375 -17.9375 -23.726562 -17.5625 -24.125 L -7.328125 -34.640625 C -7.046875 -34.929688 -6.742188 -35.039062 -6.421875 -34.96875 C -6.097656 -34.90625 -5.703125 -34.648438 -5.234375 -34.203125 L -4.453125 -33.4375 C -3.984375 -32.988281 -3.710938 -32.601562 -3.640625 -32.28125 C -3.566406 -31.957031 -3.671875 -31.648438 -3.953125 -31.359375 L -11.4375 -23.65625 L -6.203125 -18.5625 L 0.46875 -25.4375 C 0.75 -25.71875 1.050781 -25.820312 1.375 -25.75 C 1.707031 -25.6875 2.101562 -25.429688 2.5625 -24.984375 L 3.34375 -24.21875 C 3.800781 -23.78125 4.066406 -23.394531 4.140625 -23.0625 C 4.222656 -22.738281 4.125 -22.4375 3.84375 -22.15625 L -2.828125 -15.28125 L 2.890625 -9.71875 L 10.421875 -17.46875 C 10.691406 -17.75 10.988281 -17.851562 11.3125 -17.78125 C 11.644531 -17.71875 12.039062 -17.460938 12.5 -17.015625 L 13.28125 -16.265625 C 13.738281 -15.816406 14.003906 -15.425781 14.078125 -15.09375 C 14.160156 -14.769531 14.066406 -14.46875 13.796875 -14.1875 Z M 3.515625 -3.625 "/></g></g></g><path fill="#ffffff" d="M 28.789062 138.292969 C 29.433594 136.183594 30.117188 134.085938 30.84375 132.003906 C 31.566406 129.921875 32.335938 127.855469 33.144531 125.804688 C 33.949219 123.753906 34.800781 121.71875 35.6875 119.699219 C 36.578125 117.683594 37.507812 115.683594 38.472656 113.703125 C 39.441406 111.722656 40.449219 109.761719 41.496094 107.820312 C 42.542969 105.878906 43.628906 103.960938 44.75 102.0625 C 45.875 100.167969 47.035156 98.292969 48.234375 96.441406 C 49.429688 94.589844 50.664062 92.761719 51.933594 90.960938 C 53.203125 89.160156 54.511719 87.382812 55.851562 85.632812 C 57.191406 83.886719 58.566406 82.164062 59.976562 80.46875 C 61.386719 78.773438 62.828125 77.105469 64.304688 75.46875 C 65.78125 73.832031 67.289062 72.226562 68.828125 70.648438 C 70.371094 69.070312 71.941406 67.523438 73.542969 66.011719 C 75.144531 64.496094 76.773438 63.015625 78.433594 61.566406 C 80.09375 60.117188 81.785156 58.699219 83.5 57.316406 C 85.21875 55.933594 86.960938 54.589844 88.730469 53.277344 C 90.5 51.964844 92.296875 50.6875 94.117188 49.445312 C 95.941406 48.203125 97.785156 47 99.652344 45.832031 C 101.523438 44.664062 103.414062 43.535156 105.328125 42.445312 C 107.242188 41.351562 109.179688 40.300781 111.132812 39.285156 C 113.089844 38.269531 115.066406 37.292969 117.0625 36.359375 C 119.054688 35.421875 121.070312 34.527344 123.101562 33.671875 C 125.128906 32.816406 127.175781 32 129.238281 31.226562 C 131.304688 30.453125 133.378906 29.722656 135.472656 29.03125 C 137.566406 28.339844 139.671875 27.691406 141.789062 27.082031 C 143.90625 26.476562 146.035156 25.910156 148.175781 25.390625 C 150.316406 24.867188 152.46875 24.386719 154.625 23.949219 C 156.785156 23.515625 158.953125 23.121094 161.128906 22.769531 C 163.304688 22.421875 165.484375 22.113281 167.671875 21.851562 C 169.859375 21.589844 172.050781 21.371094 174.25 21.195312 C 176.445312 21.019531 178.644531 20.886719 180.84375 20.800781 C 183.046875 20.710938 185.25 20.667969 187.453125 20.667969 C 189.65625 20.667969 191.859375 20.710938 194.058594 20.800781 C 196.261719 20.886719 198.460938 21.019531 200.65625 21.195312 C 202.855469 21.371094 205.046875 21.589844 207.234375 21.855469 C 209.421875 22.117188 211.601562 22.425781 213.777344 22.773438 C 215.953125 23.125 218.121094 23.519531 220.28125 23.953125 C 222.441406 24.390625 224.59375 24.871094 226.734375 25.394531 C 228.875 25.917969 231.003906 26.480469 233.121094 27.089844 C 235.238281 27.695312 237.34375 28.34375 239.4375 29.035156 C 241.53125 29.726562 243.609375 30.460938 245.671875 31.234375 C 247.734375 32.011719 249.78125 32.824219 251.8125 33.679688 C 253.84375 34.535156 255.855469 35.433594 257.851562 36.371094 C 259.847656 37.304688 261.820312 38.28125 263.777344 39.296875 C 265.734375 40.3125 267.671875 41.363281 269.585938 42.457031 C 271.5 43.550781 273.390625 44.679688 275.261719 45.847656 C 277.128906 47.015625 278.976562 48.21875 280.796875 49.460938 C 282.617188 50.703125 284.414062 51.980469 286.183594 53.292969 C 287.953125 54.605469 289.699219 55.953125 291.414062 57.335938 C 293.132812 58.71875 294.820312 60.132812 296.480469 61.582031 C 298.140625 63.03125 299.773438 64.515625 301.375 66.03125 C 302.976562 67.546875 304.546875 69.089844 306.085938 70.667969 C 307.625 72.246094 309.132812 73.855469 310.609375 75.492188 C 312.085938 77.128906 313.527344 78.796875 314.9375 80.492188 C 316.347656 82.1875 317.722656 83.910156 319.066406 85.660156 C 320.40625 87.410156 321.710938 89.1875 322.980469 90.988281 C 324.253906 92.789062 325.484375 94.617188 326.683594 96.46875 C 327.882812 98.320312 329.042969 100.195312 330.164062 102.09375 C 331.289062 103.988281 332.371094 105.910156 333.417969 107.851562 C 334.464844 109.789062 335.472656 111.75 336.441406 113.734375 C 337.410156 115.714844 338.339844 117.714844 339.226562 119.730469 C 340.117188 121.75 340.964844 123.785156 341.773438 125.835938 C 342.582031 127.890625 343.347656 129.957031 344.074219 132.039062 C 344.796875 134.121094 345.480469 136.21875 346.125 138.328125 L 294.722656 154.003906 C 293.851562 151.152344 292.871094 148.335938 291.777344 145.558594 C 290.6875 142.785156 289.484375 140.054688 288.175781 137.375 C 286.863281 134.695312 285.449219 132.074219 283.929688 129.503906 C 282.410156 126.9375 280.792969 124.4375 279.074219 122 C 277.355469 119.558594 275.542969 117.195312 273.632812 114.902344 C 271.726562 112.609375 269.734375 110.394531 267.648438 108.261719 C 265.566406 106.125 263.402344 104.078125 261.15625 102.117188 C 258.910156 100.15625 256.589844 98.289062 254.195312 96.511719 C 251.800781 94.738281 249.335938 93.058594 246.808594 91.480469 C 244.28125 89.898438 241.691406 88.425781 239.046875 87.050781 C 236.402344 85.679688 233.703125 84.414062 230.957031 83.253906 C 228.210938 82.097656 225.421875 81.050781 222.59375 80.117188 C 219.761719 79.179688 216.898438 78.359375 214.003906 77.652344 C 211.109375 76.949219 208.191406 76.355469 205.246094 75.882812 C 202.304688 75.410156 199.347656 75.054688 196.378906 74.816406 C 193.40625 74.578125 190.433594 74.460938 187.453125 74.460938 C 184.472656 74.460938 181.496094 74.578125 178.527344 74.816406 C 175.558594 75.054688 172.601562 75.410156 169.660156 75.882812 C 166.714844 76.355469 163.796875 76.945312 160.902344 77.652344 C 158.007812 78.355469 155.144531 79.175781 152.316406 80.113281 C 149.484375 81.046875 146.699219 82.09375 143.953125 83.25 C 141.203125 84.40625 138.507812 85.671875 135.863281 87.042969 C 133.21875 88.414062 130.628906 89.890625 128.101562 91.46875 C 125.574219 93.050781 123.113281 94.726562 120.71875 96.5 C 118.324219 98.277344 116.003906 100.144531 113.757812 102.105469 C 111.511719 104.066406 109.34375 106.113281 107.261719 108.246094 C 105.179688 110.378906 103.183594 112.59375 101.277344 114.886719 C 99.371094 117.179688 97.558594 119.542969 95.839844 121.980469 C 94.121094 124.417969 92.503906 126.917969 90.984375 129.488281 C 89.464844 132.054688 88.046875 134.675781 86.738281 137.355469 C 85.425781 140.035156 84.226562 142.761719 83.132812 145.539062 C 82.039062 148.3125 81.058594 151.128906 80.1875 153.980469 Z M 28.789062 138.292969 " fill-opacity="1" fill-rule="nonzero"/><g fill="#757fb2" fill-opacity="1"><g transform="translate(68.366795, 148.630939)"><g><path d="M 2.078125 -4.59375 C 1.859375 -4.101562 1.582031 -3.796875 1.25 -3.671875 C 0.914062 -3.546875 0.507812 -3.59375 0.03125 -3.8125 L -23.9375 -14.640625 C -24.445312 -14.867188 -24.757812 -15.144531 -24.875 -15.46875 C -24.988281 -15.800781 -24.9375 -16.210938 -24.71875 -16.703125 L -21.09375 -24.734375 C -19.375 -28.546875 -16.910156 -31.003906 -13.703125 -32.109375 C -10.492188 -33.222656 -6.671875 -32.773438 -2.234375 -30.765625 C 2.210938 -28.765625 5.078125 -26.191406 6.359375 -23.046875 C 7.640625 -19.910156 7.421875 -16.4375 5.703125 -12.625 Z M 1.375 -14.453125 C 2.375 -16.671875 2.394531 -18.742188 1.4375 -20.671875 C 0.476562 -22.597656 -1.519531 -24.242188 -4.5625 -25.609375 C -7.59375 -26.984375 -10.148438 -27.394531 -12.234375 -26.84375 C -14.316406 -26.289062 -15.859375 -24.90625 -16.859375 -22.6875 L -18.796875 -18.40625 L -0.5625 -10.171875 Z M 1.375 -14.453125 "/></g></g></g><g fill="#757fb2" fill-opacity="1"><g transform="translate(79.328254, 124.475152)"><g><path d="M 2.90625 -4.125 C 2.59375 -3.6875 2.257812 -3.4375 1.90625 -3.375 C 1.5625 -3.320312 1.171875 -3.445312 0.734375 -3.75 L -20.796875 -18.84375 C -21.253906 -19.164062 -21.507812 -19.5 -21.5625 -19.84375 C -21.613281 -20.1875 -21.484375 -20.578125 -21.171875 -21.015625 L -12.75 -33.046875 C -12.519531 -33.367188 -12.234375 -33.523438 -11.890625 -33.515625 C -11.554688 -33.503906 -11.128906 -33.3125 -10.609375 -32.9375 L -9.703125 -32.3125 C -9.179688 -31.9375 -8.859375 -31.59375 -8.734375 -31.28125 C -8.609375 -30.976562 -8.660156 -30.664062 -8.890625 -30.34375 L -15.0625 -21.546875 L -9.078125 -17.34375 L -3.578125 -25.1875 C -3.347656 -25.507812 -3.066406 -25.660156 -2.734375 -25.640625 C -2.398438 -25.628906 -1.96875 -25.441406 -1.4375 -25.078125 L -0.546875 -24.4375 C -0.0234375 -24.070312 0.296875 -23.734375 0.421875 -23.421875 C 0.546875 -23.117188 0.492188 -22.804688 0.265625 -22.484375 L -5.234375 -14.640625 L 1.3125 -10.0625 L 7.515625 -18.890625 C 7.742188 -19.210938 8.023438 -19.367188 8.359375 -19.359375 C 8.691406 -19.347656 9.125 -19.15625 9.65625 -18.78125 L 10.53125 -18.171875 C 11.0625 -17.796875 11.390625 -17.453125 11.515625 -17.140625 C 11.640625 -16.828125 11.585938 -16.507812 11.359375 -16.1875 Z M 2.90625 -4.125 "/></g></g></g><g fill="#757fb2" fill-opacity="1"><g transform="translate(91.12264, 107.485372)"><g><path d="M 7.609375 -7.421875 C 6.304688 -6.078125 5.003906 -5.015625 3.703125 -4.234375 C 2.398438 -3.453125 1.25 -2.976562 0.25 -2.8125 C -0.613281 -2.664062 -1.191406 -2.738281 -1.484375 -3.03125 C -1.867188 -3.394531 -2.15625 -4.054688 -2.34375 -5.015625 C -2.539062 -5.984375 -2.507812 -6.597656 -2.25 -6.859375 C -2.132812 -6.984375 -1.78125 -7.125 -1.1875 -7.28125 C -0.25 -7.601562 0.609375 -7.960938 1.390625 -8.359375 C 2.179688 -8.765625 2.960938 -9.367188 3.734375 -10.171875 C 4.609375 -11.078125 5.125 -12.046875 5.28125 -13.078125 C 5.445312 -14.117188 5.101562 -15.054688 4.25 -15.890625 C 3.695312 -16.421875 3.082031 -16.707031 2.40625 -16.75 C 1.738281 -16.800781 1.050781 -16.71875 0.34375 -16.5 C -0.351562 -16.28125 -1.269531 -15.921875 -2.40625 -15.421875 L -3.875 -14.828125 C -5.1875 -14.285156 -6.363281 -13.921875 -7.40625 -13.734375 C -8.457031 -13.554688 -9.5625 -13.632812 -10.71875 -13.96875 C -11.882812 -14.3125 -13.050781 -15.046875 -14.21875 -16.171875 C -15.476562 -17.398438 -16.25 -18.765625 -16.53125 -20.265625 C -16.8125 -21.765625 -16.65625 -23.257812 -16.0625 -24.75 C -15.46875 -26.238281 -14.554688 -27.617188 -13.328125 -28.890625 C -12.453125 -29.796875 -11.503906 -30.570312 -10.484375 -31.21875 C -9.472656 -31.875 -8.570312 -32.265625 -7.78125 -32.390625 C -7.082031 -32.535156 -6.578125 -32.457031 -6.265625 -32.15625 C -5.910156 -31.8125 -5.613281 -31.1875 -5.375 -30.28125 C -5.132812 -29.382812 -5.132812 -28.804688 -5.375 -28.546875 C -5.476562 -28.441406 -5.6875 -28.328125 -6 -28.203125 C -6.3125 -28.085938 -6.554688 -28.003906 -6.734375 -27.953125 C -7.847656 -27.460938 -8.847656 -26.765625 -9.734375 -25.859375 C -10.773438 -24.773438 -11.332031 -23.769531 -11.40625 -22.84375 C -11.476562 -21.914062 -11.179688 -21.128906 -10.515625 -20.484375 C -9.929688 -19.921875 -9.304688 -19.609375 -8.640625 -19.546875 C -7.972656 -19.492188 -7.3125 -19.582031 -6.65625 -19.8125 C -6.007812 -20.039062 -5.097656 -20.421875 -3.921875 -20.953125 C -2.347656 -21.640625 -0.984375 -22.140625 0.171875 -22.453125 C 1.335938 -22.773438 2.585938 -22.804688 3.921875 -22.546875 C 5.253906 -22.296875 6.550781 -21.554688 7.8125 -20.328125 C 9.925781 -18.273438 10.890625 -16.09375 10.703125 -13.78125 C 10.515625 -11.476562 9.484375 -9.359375 7.609375 -7.421875 Z M 7.609375 -7.421875 "/></g></g></g><g fill="#757fb2" fill-opacity="1"><g transform="translate(103.998011, 93.836734)"><g><path d="M 4.03125 -3.03125 C 3.601562 -2.707031 3.210938 -2.566406 2.859375 -2.609375 C 2.503906 -2.660156 2.171875 -2.898438 1.859375 -3.328125 L -13.921875 -24.375 C -14.253906 -24.820312 -14.390625 -25.21875 -14.328125 -25.5625 C -14.273438 -25.90625 -14.035156 -26.238281 -13.609375 -26.5625 L -1.84375 -35.359375 C -1.53125 -35.597656 -1.210938 -35.660156 -0.890625 -35.546875 C -0.578125 -35.429688 -0.226562 -35.113281 0.15625 -34.59375 L 0.8125 -33.71875 C 1.195312 -33.207031 1.398438 -32.785156 1.421875 -32.453125 C 1.441406 -32.117188 1.296875 -31.832031 0.984375 -31.59375 L -7.625 -25.15625 L -3.234375 -19.3125 L 4.4375 -25.046875 C 4.75 -25.285156 5.0625 -25.34375 5.375 -25.21875 C 5.6875 -25.101562 6.035156 -24.789062 6.421875 -24.28125 L 7.078125 -23.40625 C 7.460938 -22.894531 7.664062 -22.472656 7.6875 -22.140625 C 7.707031 -21.804688 7.5625 -21.519531 7.25 -21.28125 L -0.421875 -15.546875 L 4.375 -9.15625 L 13.015625 -15.625 C 13.335938 -15.863281 13.65625 -15.925781 13.96875 -15.8125 C 14.28125 -15.695312 14.628906 -15.378906 15.015625 -14.859375 L 15.65625 -14 C 16.050781 -13.476562 16.257812 -13.050781 16.28125 -12.71875 C 16.300781 -12.382812 16.148438 -12.097656 15.828125 -11.859375 Z M 4.03125 -3.03125 "/></g></g></g><g fill="#757fb2" fill-opacity="1"><g transform="translate(119.867387, 81.192677)"><g><path d="M 4.90625 -2.3125 C 3.570312 -1.65625 2.726562 -1.691406 2.375 -2.421875 L -9.46875 -26.8125 C -9.820312 -27.539062 -9.332031 -28.234375 -8 -28.890625 L -6.640625 -29.546875 C -6.085938 -29.816406 -5.609375 -29.96875 -5.203125 -30 C -4.804688 -30.039062 -4.421875 -29.9375 -4.046875 -29.6875 L 12.796875 -19.609375 C 13.648438 -19.128906 14.457031 -18.585938 15.21875 -17.984375 L 15.34375 -18.09375 C 15.007812 -18.65625 14.566406 -19.503906 14.015625 -20.640625 L 7.109375 -34.875 C 6.753906 -35.601562 7.25 -36.289062 8.59375 -36.9375 L 9.421875 -37.34375 C 10.742188 -37.988281 11.582031 -37.945312 11.9375 -37.21875 L 23.78125 -12.828125 C 24.132812 -12.097656 23.648438 -11.410156 22.328125 -10.765625 L 21.109375 -10.171875 C 20.578125 -9.910156 20.125 -9.765625 19.75 -9.734375 C 19.375 -9.710938 19 -9.804688 18.625 -10.015625 L 1.421875 -20.25 C 0.484375 -20.757812 -0.316406 -21.289062 -0.984375 -21.84375 L -1.125 -21.71875 C -0.789062 -21.15625 -0.347656 -20.3125 0.203125 -19.1875 L 7.203125 -4.765625 C 7.554688 -4.035156 7.066406 -3.347656 5.734375 -2.703125 Z M 4.90625 -2.3125 "/></g></g></g><g fill="#757fb2" fill-opacity="1"><g transform="translate(144.437851, 69.178592)"><g><path d="M 15.390625 -3.625 C 10.828125 -2.457031 7.164062 -2.78125 4.40625 -4.59375 C 1.644531 -6.40625 -0.367188 -9.804688 -1.640625 -14.796875 C -4.109375 -24.453125 -0.859375 -30.425781 8.109375 -32.71875 C 9.441406 -33.050781 10.820312 -33.25 12.25 -33.3125 C 13.6875 -33.382812 14.835938 -33.296875 15.703125 -33.046875 C 16.472656 -32.835938 16.914062 -32.519531 17.03125 -32.09375 C 17.101562 -31.769531 17.078125 -31.304688 16.953125 -30.703125 C 16.835938 -30.109375 16.660156 -29.566406 16.421875 -29.078125 C 16.191406 -28.585938 15.941406 -28.304688 15.671875 -28.234375 C 15.585938 -28.210938 15.226562 -28.265625 14.59375 -28.390625 C 13.957031 -28.515625 13.179688 -28.570312 12.265625 -28.5625 C 11.359375 -28.5625 10.332031 -28.414062 9.1875 -28.125 C 6.507812 -27.445312 4.734375 -26.128906 3.859375 -24.171875 C 2.992188 -22.210938 2.992188 -19.539062 3.859375 -16.15625 C 4.710938 -12.8125 5.992188 -10.476562 7.703125 -9.15625 C 9.410156 -7.832031 11.582031 -7.503906 14.21875 -8.171875 C 15.457031 -8.484375 16.503906 -8.894531 17.359375 -9.40625 C 18.210938 -9.925781 19.003906 -10.488281 19.734375 -11.09375 C 20.117188 -11.4375 20.398438 -11.628906 20.578125 -11.671875 C 20.867188 -11.742188 21.21875 -11.625 21.625 -11.3125 C 22.039062 -11 22.421875 -10.609375 22.765625 -10.140625 C 23.109375 -9.679688 23.3125 -9.34375 23.375 -9.125 C 23.53125 -8.5 23.210938 -7.8125 22.421875 -7.0625 C 21.679688 -6.351562 20.65625 -5.6875 19.34375 -5.0625 C 18.03125 -4.4375 16.710938 -3.957031 15.390625 -3.625 Z M 15.390625 -3.625 "/></g></g></g><g fill="#757fb2" fill-opacity="1"><g transform="translate(167.039322, 63.175285)"><g><path d="M 5.53125 -0.28125 C 4.050781 -0.1875 3.285156 -0.546875 3.234375 -1.359375 L 1.515625 -28 C 1.484375 -28.53125 1.578125 -28.929688 1.796875 -29.203125 C 2.015625 -29.472656 2.390625 -29.625 2.921875 -29.65625 L 10.71875 -30.15625 C 14.21875 -30.382812 16.851562 -29.90625 18.625 -28.71875 C 20.394531 -27.539062 21.363281 -25.664062 21.53125 -23.09375 C 21.632812 -21.46875 21.289062 -20.039062 20.5 -18.8125 C 19.707031 -17.59375 18.582031 -16.644531 17.125 -15.96875 L 17.140625 -15.796875 C 17.753906 -15.609375 18.363281 -15.144531 18.96875 -14.40625 C 19.582031 -13.675781 20.148438 -12.769531 20.671875 -11.6875 L 24.8125 -3.03125 C 24.945312 -2.644531 25.015625 -2.410156 25.015625 -2.328125 C 25.046875 -1.796875 24.304688 -1.484375 22.796875 -1.390625 L 21.546875 -1.3125 C 20.304688 -1.226562 19.5625 -1.445312 19.3125 -1.96875 L 15.515625 -9.96875 C 14.941406 -11.082031 14.296875 -11.835938 13.578125 -12.234375 C 12.867188 -12.640625 11.820312 -12.796875 10.4375 -12.703125 L 8.03125 -12.546875 L 8.71875 -1.703125 C 8.769531 -0.890625 8.054688 -0.4375 6.578125 -0.34375 Z M 12.25 -17.59375 C 13.3125 -17.664062 14.207031 -18.132812 14.9375 -19 C 15.664062 -19.863281 15.992188 -20.859375 15.921875 -21.984375 C 15.847656 -23.179688 15.410156 -24.085938 14.609375 -24.703125 C 13.804688 -25.316406 12.75 -25.582031 11.4375 -25.5 L 7.203125 -25.21875 L 7.71875 -17.296875 Z M 12.25 -17.59375 "/></g></g></g><g fill="#757fb2" fill-opacity="1"><g transform="translate(190.671832, 61.984233)"><g><path d="M 5.390625 0.5 C 3.878906 0.394531 3.15625 -0.078125 3.21875 -0.921875 L 5.125 -27.984375 C 5.1875 -28.816406 5.972656 -29.179688 7.484375 -29.078125 L 8.53125 -29 C 10.007812 -28.894531 10.71875 -28.425781 10.65625 -27.59375 L 8.75 -0.53125 C 8.6875 0.3125 7.914062 0.679688 6.4375 0.578125 Z M 5.390625 0.5 "/></g></g></g><g fill="#757fb2" fill-opacity="1"><g transform="translate(200.748318, 62.188842)"><g><path d="M 5.25 1.140625 C 4.488281 0.984375 3.953125 0.773438 3.640625 0.515625 C 3.335938 0.265625 3.226562 -0.0703125 3.3125 -0.5 L 8.609375 -26.671875 C 8.710938 -27.191406 8.90625 -27.550781 9.1875 -27.75 C 9.46875 -27.957031 9.867188 -28.007812 10.390625 -27.90625 L 18.953125 -26.171875 C 21.484375 -25.660156 23.585938 -24.601562 25.265625 -23 C 26.941406 -21.40625 27.4375 -18.921875 26.75 -15.546875 C 26.269531 -13.191406 25.335938 -11.46875 23.953125 -10.375 C 22.578125 -9.28125 21.148438 -8.644531 19.671875 -8.46875 C 18.203125 -8.300781 16.914062 -8.328125 15.8125 -8.546875 L 10.765625 -9.5625 L 8.703125 0.59375 C 8.546875 1.394531 7.738281 1.644531 6.28125 1.34375 Z M 16.3125 -13.28125 C 17.382812 -13.0625 18.394531 -13.175781 19.34375 -13.625 C 20.289062 -14.082031 20.921875 -15.09375 21.234375 -16.65625 C 21.546875 -18.164062 21.332031 -19.3125 20.59375 -20.09375 C 19.863281 -20.875 18.921875 -21.378906 17.765625 -21.609375 L 13.375 -22.5 L 11.703125 -14.203125 Z M 16.3125 -13.28125 "/></g></g></g><g fill="#757fb2" fill-opacity="1"><g transform="translate(221.899036, 66.292539)"><g><path d="M 10.234375 4.03125 C 8.847656 3.5 8.300781 2.851562 8.59375 2.09375 L 17.078125 -19.890625 L 10.421875 -22.453125 C 10.054688 -22.597656 9.835938 -22.828125 9.765625 -23.140625 C 9.691406 -23.460938 9.773438 -23.925781 10.015625 -24.53125 L 10.40625 -25.5625 C 10.632812 -26.15625 10.882812 -26.550781 11.15625 -26.75 C 11.4375 -26.957031 11.757812 -26.988281 12.125 -26.84375 L 30.578125 -19.71875 C 30.941406 -19.582031 31.15625 -19.347656 31.21875 -19.015625 C 31.28125 -18.679688 31.195312 -18.21875 30.96875 -17.625 L 30.578125 -16.59375 C 30.335938 -15.988281 30.082031 -15.59375 29.8125 -15.40625 C 29.550781 -15.21875 29.238281 -15.191406 28.875 -15.328125 L 22.25 -17.890625 L 13.765625 4.09375 C 13.472656 4.851562 12.632812 4.96875 11.25 4.4375 Z M 10.234375 4.03125 "/></g></g></g><g fill="#757fb2" fill-opacity="1"><g transform="translate(241.228033, 73.394337)"><g><path d="M 2.078125 1.34375 C 0.753906 0.550781 0.238281 -0.078125 0.53125 -0.546875 C 0.570312 -0.617188 0.75 -0.796875 1.0625 -1.078125 L 23.25 -19.46875 C 23.664062 -19.832031 24.410156 -19.691406 25.484375 -19.046875 L 27.0625 -18.09375 C 28.125 -17.445312 28.601562 -16.847656 28.5 -16.296875 L 22.546875 11.921875 C 22.472656 12.203125 22.382812 12.425781 22.28125 12.59375 C 21.988281 13.0625 21.265625 12.945312 20.109375 12.25 L 19 11.578125 C 17.945312 10.941406 17.476562 10.347656 17.59375 9.796875 L 18.90625 3.875 L 9.703125 -1.6875 L 5.078125 2.234375 C 4.628906 2.578125 3.960938 2.484375 3.078125 1.953125 Z M 19.984375 -0.96875 L 22.140625 -10.46875 C 22.273438 -11.132812 22.554688 -11.976562 22.984375 -13 L 22.828125 -13.078125 C 22.722656 -12.960938 22.476562 -12.691406 22.09375 -12.265625 C 21.707031 -11.835938 21.328125 -11.476562 20.953125 -11.1875 L 13.46875 -4.90625 Z M 19.984375 -0.96875 "/></g></g></g><g fill="#757fb2" fill-opacity="1"><g transform="translate(261.134917, 84.912997)"><g><path d="M 3.71875 3.40625 C 3.320312 3.039062 3.113281 2.679688 3.09375 2.328125 C 3.070312 1.984375 3.242188 1.613281 3.609375 1.21875 L 21.359375 -18.171875 C 21.742188 -18.585938 22.109375 -18.800781 22.453125 -18.8125 C 22.804688 -18.820312 23.179688 -18.644531 23.578125 -18.28125 L 30.078125 -12.328125 C 33.160156 -9.503906 34.726562 -6.394531 34.78125 -3 C 34.84375 0.382812 33.222656 3.875 29.921875 7.46875 C 26.628906 11.0625 23.289062 12.976562 19.90625 13.21875 C 16.53125 13.46875 13.300781 12.179688 10.21875 9.359375 Z M 13.296875 5.8125 C 15.097656 7.457031 17.0625 8.125 19.1875 7.8125 C 21.3125 7.5 23.5 6.113281 25.75 3.65625 C 28.007812 1.195312 29.203125 -1.101562 29.328125 -3.25 C 29.453125 -5.394531 28.613281 -7.289062 26.8125 -8.9375 L 23.34375 -12.125 L 9.828125 2.625 Z M 13.296875 5.8125 "/></g></g></g><g fill="#757fb2" fill-opacity="1"><g transform="translate(280.733859, 102.310121)"><g><path d="M 8.609375 12.734375 C 6.140625 9.234375 5.296875 5.800781 6.078125 2.4375 C 6.867188 -0.914062 9.253906 -3.992188 13.234375 -6.796875 C 17.203125 -9.597656 20.890625 -10.796875 24.296875 -10.390625 C 27.710938 -9.992188 30.65625 -8.046875 33.125 -4.546875 C 35.59375 -1.046875 36.441406 2.367188 35.671875 5.703125 C 34.898438 9.035156 32.523438 12.109375 28.546875 14.921875 C 24.566406 17.722656 20.863281 18.929688 17.4375 18.546875 C 14.019531 18.171875 11.078125 16.234375 8.609375 12.734375 Z M 12.453125 10.03125 C 13.867188 12.039062 15.675781 13.066406 17.875 13.109375 C 20.070312 13.148438 22.539062 12.207031 25.28125 10.28125 C 28.03125 8.34375 29.742188 6.347656 30.421875 4.296875 C 31.097656 2.253906 30.71875 0.210938 29.28125 -1.828125 C 27.84375 -3.859375 26.039062 -4.90625 23.875 -4.96875 C 21.707031 -5.03125 19.25 -4.09375 16.5 -2.15625 C 13.757812 -0.226562 12.039062 1.773438 11.34375 3.859375 C 10.644531 5.941406 11.015625 8 12.453125 10.03125 Z M 12.453125 10.03125 "/></g></g></g><g fill="#757fb2" fill-opacity="1"><g transform="translate(296.805584, 125.04569)"><g><path d="M 2.140625 5.109375 C 1.546875 3.742188 1.625 2.898438 2.375 2.578125 L 26.84375 -8.109375 C 27.332031 -8.316406 27.738281 -8.363281 28.0625 -8.25 C 28.394531 -8.132812 28.671875 -7.832031 28.890625 -7.34375 L 32.015625 -0.1875 C 33.410156 3.019531 33.851562 5.65625 33.34375 7.71875 C 32.84375 9.789062 31.410156 11.34375 29.046875 12.375 C 27.554688 13.03125 26.097656 13.195312 24.671875 12.875 C 23.253906 12.550781 21.976562 11.8125 20.84375 10.65625 L 20.6875 10.734375 C 20.71875 11.378906 20.492188 12.109375 20.015625 12.921875 C 19.535156 13.742188 18.867188 14.59375 18.015625 15.46875 L 11.28125 22.3125 C 10.96875 22.550781 10.773438 22.691406 10.703125 22.734375 C 10.210938 22.941406 9.664062 22.351562 9.0625 20.96875 L 8.5625 19.828125 C 8.0625 18.691406 8.015625 17.914062 8.421875 17.5 L 14.65625 11.203125 C 15.507812 10.285156 16.003906 9.421875 16.140625 8.609375 C 16.273438 7.796875 16.0625 6.75 15.5 5.46875 L 14.546875 3.265625 L 4.578125 7.625 C 3.828125 7.945312 3.15625 7.429688 2.5625 6.078125 Z M 20.703125 5.546875 C 21.128906 6.515625 21.875 7.191406 22.9375 7.578125 C 24.007812 7.972656 25.0625 7.941406 26.09375 7.484375 C 27.195312 7.003906 27.898438 6.285156 28.203125 5.328125 C 28.503906 4.378906 28.390625 3.300781 27.859375 2.09375 L 26.171875 -1.796875 L 18.890625 1.375 Z M 20.703125 5.546875 "/></g></g></g></svg>